<?xml version="1.0" encoding="UTF-8"?>
<svg version="1.1" xmlns="http://www.w3.org/2000/svg" width="430" height="234">
<path d="M0 0 C1.8359375 1.66796875 1.8359375 1.66796875 3 3 C0.04730782 3 -1.63358701 2.54023945 -4.375 1.5625 C-15.11069987 -2.09073976 -25.26919833 -1.93231958 -36 2 C-45.97351965 7.14930089 -53.5640507 13.55301795 -58 24 C-59.65703659 29.56579537 -60.35888567 34.58142939 -60.3125 40.375 C-60.30404053 41.48862915 -60.30404053 41.48862915 -60.29541016 42.62475586 C-60.08605344 52.12768502 -57.90080257 60.1150979 -51 67 C-49.34525423 68.01960492 -47.67956734 69.02182245 -46 70 C-46.11892052 65.97964506 -46.24320855 61.9594942 -46.37231445 57.93945312 C-46.41543088 56.57393824 -46.45712068 55.20837748 -46.49731445 53.84277344 C-46.55558554 51.8716281 -46.61953736 49.90065332 -46.68359375 47.9296875 C-46.72025146 46.74616699 -46.75690918 45.56264648 -46.79467773 44.34326172 C-46.98990218 41.16442281 -47.41476502 38.12819551 -48 35 C-45.5625 32.8125 -45.5625 32.8125 -42 31 C-38.7905 31.53752602 -35.95569728 32.6600839 -33 34 C-34 37 -34 37 -35 38 C-34.34 38 -33.68 38 -33 38 C-33.2475 39.175625 -33.2475 39.175625 -33.5 40.375 C-34.0623707 42.88208039 -34.0623707 42.88208039 -34 45 C-31.68654216 42.84609098 -30.09455697 41.20329748 -28.75 38.3125 C-27 36 -27 36 -25.03515625 35.4609375 C-23.03267514 35.21458657 -21.01514205 35.09910535 -19 35 C-19.99 37.31 -20.98 39.62 -22 42 C-20.08451836 41.4662686 -20.08451836 41.4662686 -18 40 C-17.401875 38.824375 -16.80375 37.64875 -16.1875 36.4375 C-15.21484375 34.5546875 -15.21484375 34.5546875 -14 33 C-10.25 32.0625 -10.25 32.0625 -7 32 C-7.875 36.75 -7.875 36.75 -9 39 C-5.49299101 37.830997 -5.10093472 36.9906039 -3.125 34 C-0.35640496 30.12396694 -0.35640496 30.12396694 2.875 29 C3.57625 29 4.2775 29 5 29 C5 36.32933366 3.3866106 39.42675358 -1.6953125 44.6171875 C-4.11783382 47.12182819 -6.22795193 49.75697417 -8.375 52.5 C-16.81383037 62.86729161 -28.53661251 74.51434498 -42.44140625 76.31640625 C-48.47251632 76.6018481 -53.11185099 75.61784001 -58 72 C-65.78861971 64.80070325 -69.66756291 57.02756541 -70.16796875 46.44921875 C-70.24875579 30.88963505 -67.31178008 19.81400489 -56.3125 8.25390625 C-53.05816489 5.08202896 -49.8951133 2.35242506 -46 0 C-45.19820312 -0.48597656 -44.39640625 -0.97195312 -43.5703125 -1.47265625 C-30.55969649 -8.08853606 -12.60217161 -7.28627186 0 0 Z " fill="#B9964E" transform="translate(232,47)"/>
<path d="M0 0 C0.99 0.33 1.98 0.66 3 1 C2.47718733 7.27375199 1.31967613 13.05574412 -0.3359375 19.12890625 C-0.93079226 21.70077829 -1.09571754 23.87921974 -1.125 26.5 C-2 30 -2 30 -3.77734375 31.1640625 C-5.34715368 31.8241877 -6.93341991 32.44608282 -8.53125 33.03515625 C-17.25617895 36.44505728 -21.89518069 43.52223734 -27 51 C-38.51039578 67.14153159 -38.51039578 67.14153159 -43 72 C-43.66 72 -44.32 72 -45 72 C-45.226875 72.556875 -45.45375 73.11375 -45.6875 73.6875 C-50.2026451 81.64275565 -59.90754498 88.10600831 -68.58203125 90.5625 C-75.68280126 91.84729199 -82.81756474 92.14462927 -89.19140625 88.39453125 C-95.54521371 83.49537517 -101.02656137 76.46159371 -102.75 68.5625 C-102.8325 67.716875 -102.915 66.87125 -103 66 C-102.34 66 -101.68 66 -101 66 C-99.7734375 67.7578125 -99.7734375 67.7578125 -98.375 70.125 C-94.78346995 75.71966842 -90.37448617 79.87517128 -84 82 C-72.59695643 83.61589023 -63.59294849 79.27198801 -54.69140625 72.58984375 C-48.80403983 67.94521472 -43.69331724 62.82714834 -39 57 C-37.97900246 55.77639339 -36.95674051 54.55384131 -35.93359375 53.33203125 C-29.7156957 45.85444969 -23.9062068 38.42083495 -19 30 C-20.175625 31.485 -20.175625 31.485 -21.375 33 C-22.24125 33.99 -23.1075 34.98 -24 36 C-24.66 36 -25.32 36 -26 36 C-25.72668136 32.59655363 -25.37091389 29.20658554 -25 25.8125 C-24.92394531 24.85279297 -24.84789062 23.89308594 -24.76953125 22.90429688 C-23.94706008 15.91329196 -23.94706008 15.91329196 -21.21289062 13.27661133 C-19.18534545 12.00285513 -17.18426016 10.97553069 -15 10 C-13.82808848 9.36373339 -12.66040393 8.71951943 -11.5 8.0625 C-10.93796875 7.75054687 -10.3759375 7.43859375 -9.796875 7.1171875 C-6.94579417 5.34455898 -4.38261755 3.21004209 -1.796875 1.07421875 C-1.20390625 0.71972656 -0.6109375 0.36523438 0 0 Z M-1 4 C-1 7 -1 7 -1 7 Z M-3 7 C-2 9 -2 9 -2 9 Z M-6 11 C-5 13 -5 13 -5 13 Z M-8 14 C-7 16 -7 16 -7 16 Z M-14 19 C-13.67 20.65 -13.34 22.3 -13 24 C-11.68 23.34 -10.36 22.68 -9 22 C-9.33 21.01 -9.66 20.02 -10 19 C-11.32 19 -12.64 19 -14 19 Z " fill="#D1BB7E" transform="translate(265,42)"/>
<path d="M0 0 C0 8.65070085 -3.07532786 12.02271088 -9 18 C-10.83734716 20.17437533 -12.65114813 22.36588834 -14.45703125 24.56640625 C-16 26 -16 26 -19 26 C-19.33 25.67 -19.66 25.34 -20 25 C-22.00720923 25.28674418 -24.0085944 25.61866701 -26 26 C-26 25.34 -26 24.68 -26 24 C-26.66 24 -27.32 24 -28 24 C-28.33 22.68 -28.66 21.36 -29 20 C-32.34473801 18.88508733 -34.60063522 19.19488729 -38 20 C-38.66 20 -39.32 20 -40 20 C-40.33 19.01 -40.66 18.02 -41 17 C-40.38640625 16.75378906 -39.7728125 16.50757812 -39.140625 16.25390625 C-36.58932671 14.75944138 -36.0267901 13.56254233 -34.75 10.9375 C-32.60219456 7.21418838 -32.60219456 7.21418838 -29.90234375 6.25390625 C-27.6875 6 -27.6875 6 -24 6 C-24.99 8.31 -25.98 10.62 -27 13 C-25.08451836 12.4662686 -25.08451836 12.4662686 -23 11 C-22.401875 9.824375 -21.80375 8.64875 -21.1875 7.4375 C-20.21484375 5.5546875 -20.21484375 5.5546875 -19 4 C-15.25 3.0625 -15.25 3.0625 -12 3 C-12.875 7.75 -12.875 7.75 -14 10 C-10.50973732 8.83657911 -10.02351531 7.95095983 -8 5 C-5.69505973 1.63862877 -4.34482822 0 0 0 Z " fill="#D2B46A" transform="translate(237,76)"/>
<path d="M0 0 C1.7890625 0.90625 1.7890625 0.90625 3.7890625 2.90625 C2.4140625 4.90625 2.4140625 4.90625 0.7890625 6.90625 C0.1290625 6.90625 -0.5309375 6.90625 -1.2109375 6.90625 C-1.4378125 7.463125 -1.6646875 8.02 -1.8984375 8.59375 C-6.4135826 16.54900565 -16.11848248 23.01225831 -24.79296875 25.46875 C-31.89373876 26.75354199 -39.02850224 27.05087927 -45.40234375 23.30078125 C-51.75615121 18.40162517 -57.23749887 11.36784371 -58.9609375 3.46875 C-59.0434375 2.623125 -59.1259375 1.7775 -59.2109375 0.90625 C-58.5509375 0.90625 -57.8909375 0.90625 -57.2109375 0.90625 C-55.984375 2.6640625 -55.984375 2.6640625 -54.5859375 5.03125 C-50.99440745 10.62591842 -46.58542367 14.78142128 -40.2109375 16.90625 C-30.28775606 18.31243352 -22.35699105 15.3874919 -14.2109375 9.90625 C-10.8959559 7.35005172 -7.79684724 4.60271387 -4.734375 1.75 C-2.2109375 -0.09375 -2.2109375 -0.09375 0 0 Z " fill="#B19355" transform="translate(221.2109375,107.09375)"/>
<path d="M0 0 C4.29867203 1.71946881 7.94361005 4.79413249 10 9 C10.76353678 13.85951913 10.67422206 18.27698808 8.875 22.875 C8.25625 23.57625 7.6375 24.2775 7 25 C6.195625 25.928125 5.39125 26.85625 4.5625 27.8125 C0.72751434 30.82296375 -3.36176929 30.7540526 -8.08203125 30.5546875 C-12.63406347 29.68937482 -15.20364318 27.61375343 -18 24 C-20.32753712 20.05330663 -20.46024243 16.52571724 -20 12 C-18.5698586 7.66082097 -16.68744349 4.65470809 -13.375 1.5 C-8.79862501 -0.53394444 -4.93234552 -0.67033555 0 0 Z M-10 4 C-12.59299536 9.54971406 -12.41697807 16.15071452 -11 22 C-9.82534115 24.3493177 -8.84421623 26.15578377 -7 28 C-4.21518844 28.29313806 -2.6038477 28.40975379 -0.25 26.8125 C3.50044069 21.374361 2.35723067 13.25055325 1.375 7.0625 C0.26821798 3.76965436 0.26821798 3.76965436 -2.875 2.4375 C-6.29567034 1.95860615 -7.21345779 2.10768976 -10 4 Z " fill="#C3B078" transform="translate(251,147)"/>
<path d="M0 0 C0.33 0 0.66 0 1 0 C1.33 13.2 1.66 26.4 2 40 C3.32 40.66 4.64 41.32 6 42 C6 42.66 6 43.32 6 44 C-0.6 44 -7.2 44 -14 44 C-14 43.34 -14 42.68 -14 42 C-11.525 41.505 -11.525 41.505 -9 41 C-9.33 33.74 -9.66 26.48 -10 19 C-10.99 19.33 -11.98 19.66 -13 20 C-11.39692116 15.05637362 -8.51067061 11.29948884 -5.4375 7.1875 C-4.93025391 6.49462891 -4.42300781 5.80175781 -3.90039062 5.08789062 C-2.62933971 3.37002554 -1.31811449 1.68202411 0 0 Z " fill="#D7BB70" transform="translate(245,86)"/>
<path d="M0 0 C0.7734375 -0.00515625 1.546875 -0.0103125 2.34375 -0.015625 C4.5 0.25 4.5 0.25 7.5 2.25 C7.5 1.59 7.5 0.93 7.5 0.25 C8.16 0.25 8.82 0.25 9.5 0.25 C9.5 3.55 9.5 6.85 9.5 10.25 C8.51 9.92 7.52 9.59 6.5 9.25 C5.3125 6.6875 5.3125 6.6875 4.5 4.25 C2.19 3.92 -0.12 3.59 -2.5 3.25 C-2.5 5.23 -2.5 7.21 -2.5 9.25 C-1.84 9.435625 -1.18 9.62125 -0.5 9.8125 C3.85482918 11.89918898 7.38413929 14.54242535 10.5 18.25 C11.3125 21.875 11.3125 21.875 10.5 25.25 C7.71950629 28.86621866 6.34397044 30.13170289 1.765625 30.7734375 C0.42637848 30.74975731 -0.91263029 30.69972779 -2.25 30.625 C-2.93449219 30.61082031 -3.61898437 30.59664062 -4.32421875 30.58203125 C-9.31624681 30.43375319 -9.31624681 30.43375319 -10.5 29.25 C-10.57205511 27.56391034 -10.58386068 25.87499341 -10.5625 24.1875 C-10.55347656 23.26839844 -10.54445313 22.34929687 -10.53515625 21.40234375 C-10.52355469 20.69207031 -10.51195313 19.98179687 -10.5 19.25 C-9.51 19.25 -8.52 19.25 -7.5 19.25 C-7.108125 20.384375 -6.71625 21.51875 -6.3125 22.6875 C-4.91270847 26.41642384 -4.91270847 26.41642384 -1.9375 27.25 C0.50931695 27.43168052 0.50931695 27.43168052 2.5 26.25 C2.5 24.27 2.5 22.29 2.5 20.25 C1.4790625 19.940625 1.4790625 19.940625 0.4375 19.625 C-4.25234474 17.42975352 -8.50178173 14.5237194 -10.625 9.6875 C-10.45942898 6.45886515 -9.43735369 4.81007451 -7.5 2.25 C-4.377998 0.16866533 -3.56733011 -0.0237822 0 0 Z " fill="#B18D42" transform="translate(133.5,146.75)"/>
<path d="M0 0 C1.8359375 1.66796875 1.8359375 1.66796875 3 3 C0.04730782 3 -1.63358701 2.54023945 -4.375 1.5625 C-15.11069987 -2.09073976 -25.26919833 -1.93231958 -36 2 C-46.04543448 7.18643032 -53.43866295 13.5507219 -58 24 C-58.37980482 25.65669466 -58.72583543 27.32258452 -59 29 C-59.33 29 -59.66 29 -60 29 C-60.27429625 23.60550707 -60.36055646 20.48074195 -57 16 C-58.65 16.33 -60.3 16.66 -62 17 C-61.67 18.65 -61.34 20.3 -61 22 C-61.99 22 -62.98 22 -64 22 C-64.33 21.34 -64.66 20.68 -65 20 C-61.24153871 11.62888167 -54.0097788 4.39752562 -46 0 C-45.24203125 -0.4434375 -44.4840625 -0.886875 -43.703125 -1.34375 C-30.58523645 -8.01386282 -12.74184669 -7.36702863 0 0 Z " fill="#D9C58A" transform="translate(232,47)"/>
<path d="M0 0 C2.81771843 4.22657765 2.42086579 8.44840173 2.56640625 13.37109375 C2.64546398 15.25129285 2.81565188 17.12719073 3 19 C3.66 19.33 4.32 19.66 5 20 C5 20.66 5 21.32 5 22 C-2.92 22 -10.84 22 -19 22 C-18.67 21.01 -18.34 20.02 -18 19 C-17.92948886 16.26134713 -17.90642235 13.54972412 -17.9375 10.8125 C-17.94201172 10.06291016 -17.94652344 9.31332031 -17.95117188 8.54101562 C-17.96293646 6.69397617 -17.98087135 4.84697787 -18 3 C-18.66 2.67 -19.32 2.34 -20 2 C-20 1.34 -20 0.68 -20 0 C-18.73542969 0.01740234 -18.73542969 0.01740234 -17.4453125 0.03515625 C-16.34960938 0.04417969 -15.25390625 0.05320313 -14.125 0.0625 C-12.48917969 0.07990234 -12.48917969 0.07990234 -10.8203125 0.09765625 C-0.97323601 -0.243309 -0.97323601 -0.243309 0 0 Z M-8 2 C-10.48288836 4.48288836 -10.28583167 6.01186156 -10.32226562 9.41015625 C-10.31904297 10.09980469 -10.31582031 10.78945312 -10.3125 11.5 C-10.32861328 12.18964844 -10.34472656 12.87929687 -10.36132812 13.58984375 C-10.39925675 15.83257651 -10.39925675 15.83257651 -10 19 C-8.515 19.99 -8.515 19.99 -7 21 C-5.38396688 19.90471313 -5.38396688 19.90471313 -4 18 C-3.56046986 14.90344009 -3.56046986 14.90344009 -3.6875 11.5 C-3.69136719 10.3553125 -3.69523437 9.210625 -3.69921875 8.03125 C-3.7777211 4.82443455 -3.7777211 4.82443455 -6 2 C-6.66 2 -7.32 2 -8 2 Z " fill="#C6A862" transform="translate(282,155)"/>
<path d="M0 0 C1.6171875 1.046875 1.6171875 1.046875 3 3 C3.35259361 5.72826534 3.55688663 8.26573454 3.625 11 C3.76916766 16.57888449 3.76916766 16.57888449 5 22 C1.37 22 -2.26 22 -6 22 C-5.67 20.68 -5.34 19.36 -5 18 C-4.88288546 15.79388882 -4.82496717 13.58418241 -4.8125 11.375 C-4.79123047 9.65410156 -4.79123047 9.65410156 -4.76953125 7.8984375 C-4.69470342 4.87274099 -4.69470342 4.87274099 -7 3 C-9.33812605 4.90234913 -9.33812605 4.90234913 -9.23046875 8.15234375 C-9.21628906 9.40144531 -9.20210937 10.65054688 -9.1875 11.9375 C-9.18105469 13.18402344 -9.17460937 14.43054688 -9.16796875 15.71484375 C-9.14645659 19.00625139 -9.14645659 19.00625139 -8 22 C-11.63 22 -15.26 22 -19 22 C-18.34 20.68 -17.68 19.36 -17 18 C-16.86002773 15.21175242 -16.8111087 12.53172884 -16.875 9.75 C-16.88853516 8.63238281 -16.88853516 8.63238281 -16.90234375 7.4921875 C-16.92581642 5.66131941 -16.96168475 3.83061762 -17 2 C-17.66 2 -18.32 2 -19 2 C-19 1.34 -19 0.68 -19 0 C-15.33333333 0 -11.66666667 0 -8 0 C-4.65044556 -1.11651815 -3.32740404 -0.99822121 0 0 Z " fill="#C1AD7E" transform="translate(205,155)"/>
<path d="M0 0 C-0.309375 0.969375 -0.61875 1.93875 -0.9375 2.9375 C-4.22039837 14.69539842 -5.51434601 31.76707294 0 43 C2.57759221 47.09879416 5.53527129 50.62807652 9 54 C4.75153925 53.52794881 2.73180712 51.11122478 0 48 C0 47.34 0 46.68 0 46 C-0.66 45.67 -1.32 45.34 -2 45 C-3.0703125 43.29296875 -3.0703125 43.29296875 -4.125 41.1875 C-4.47820312 40.50042969 -4.83140625 39.81335938 -5.1953125 39.10546875 C-6 37 -6 37 -6 33 C-8.475 33.495 -8.475 33.495 -11 34 C-10.67 35.98 -10.34 37.96 -10 40 C-10.66 40 -11.32 40 -12 40 C-14.03901839 29.38079222 -14.88666214 15.61213712 -9 6 C-8.01 5.67 -7.02 5.34 -6 5 C-6 4.34 -6 3.68 -6 3 C-4.60722783 0.21445565 -3.01148006 0 0 0 Z " fill="#B7934B" transform="translate(175,63)"/>
<path d="M0 0 C2.8125 2.25 2.8125 2.25 5 5 C5 6.65 5 8.3 5 10 C1.04 10 -2.92 10 -7 10 C-6.34 11.98 -5.68 13.96 -5 16 C-1.4780279 16.08004482 1.61981469 16.04005702 5 15 C3.47793991 17.62901288 2.15634036 19.84365964 0 22 C-6.93181818 22.68181818 -6.93181818 22.68181818 -10.9375 20.125 C-14.51670074 16.43733863 -14.33854997 13.44407858 -14.28125 8.48046875 C-13.87903081 4.93311892 -12.67419608 3.31281823 -10 1 C-6.36355754 -1.05132652 -3.93421559 -1.47533085 0 0 Z M-5 2 C-5.66 3.65 -6.32 5.3 -7 7 C-5.35 7 -3.7 7 -2 7 C-2.33 5.35 -2.66 3.7 -3 2 C-3.66 2 -4.32 2 -5 2 Z " fill="#BCA261" transform="translate(225,155)"/>
<path d="M0 0 C2.375 1.6875 2.375 1.6875 4 4 C4.25 7.25 4.25 7.25 4 10 C0.37 10 -3.26 10 -7 10 C-6.67 12.31 -6.34 14.62 -6 17 C-2.53058454 16.54177532 0.67395049 16.10868317 4 15 C2.75023244 18.65316671 2.32901247 19.78065836 -1 22 C-5.71186325 22.53198456 -7.89366112 22.64536434 -12 20.25 C-15.03297734 15.32141183 -14.98978968 10.63478692 -14 5 C-10.04231604 -0.45518599 -6.45775808 -1.71328276 0 0 Z M-5 1 C-7.2773501 3.81509993 -7.2773501 3.81509993 -7 7 C-5.35 7 -3.7 7 -2 7 C-2.66 5.02 -3.32 3.04 -4 1 C-4.33 1 -4.66 1 -5 1 Z " fill="#C9A85B" transform="translate(302,155)"/>
<path d="M0 0 C1.8125 1.125 1.8125 1.125 3 3 C3.6875 6.6875 3.6875 6.6875 4 10 C0.04 10 -3.92 10 -8 10 C-7.3045656 13.00384054 -7.3045656 13.00384054 -6 16 C-4.26033623 17.1860521 -4.26033623 17.1860521 -2 17 C1.19623648 16.12949221 1.19623648 16.12949221 4 15 C1.25 20.875 1.25 20.875 -1 22 C-8.04100946 22.45425868 -8.04100946 22.45425868 -11.375 20.875 C-14.49254108 17.27783721 -15.2360159 13.59083609 -14.9375 8.9375 C-14.26475644 4.70651037 -12.37618147 2.65271401 -9 0 C-5.45026831 -1.1832439 -3.60040463 -0.90010116 0 0 Z M-6 2 C-6.66 3.65 -7.32 5.3 -8 7 C-6.35 7 -4.7 7 -3 7 C-3 5.35 -3 3.7 -3 2 C-3.99 2 -4.98 2 -6 2 Z " fill="#B59349" transform="translate(181,155)"/>
<path d="M0 0 C2.4375 1.8125 2.4375 1.8125 4 4 C3.75 6.25 3.75 6.25 3 8 C0.625 8.625 0.625 8.625 -2 9 C-4 7 -4 7 -4.125 4.375 C-4.08375 3.59125 -4.0425 2.8075 -4 2 C-6.87511449 4.87511449 -6.83614951 8.10482694 -7 12 C-6.64933615 14.85622487 -6.64933615 14.85622487 -6 17 C-0.98464948 16.67039784 -0.98464948 16.67039784 3 14 C3 18 3 18 1.5 20.25 C-1.37690879 22.26383615 -3.52741063 22.64405368 -7.03125 22.44140625 C-10.59460468 21.64247951 -11.97699782 19.94254862 -14 17 C-15.54927764 12.03619597 -15.3014381 7.71246849 -13 3 C-8.86864707 -0.86481403 -5.41970968 -1.43788216 0 0 Z " fill="#B39D67" transform="translate(161,155)"/>
<path d="M0 0 C0.66 0.33 1.32 0.66 2 1 C2.33 1.99 2.66 2.98 3 4 C4.65 3.67 6.3 3.34 8 3 C5.95437936 5.12138437 3.94553884 7.04128792 1.59375 8.82421875 C-1.06655851 11.05583297 -2.82707258 13.22438375 -4.8125 16.0625 C-5.49441406 17.02542969 -6.17632812 17.98835938 -6.87890625 18.98046875 C-7.57886719 19.97691406 -8.27882812 20.97335938 -9 22 C-10.41261729 23.9612563 -11.82916054 25.91969207 -13.25 27.875 C-13.87390625 28.73867187 -14.4978125 29.60234375 -15.140625 30.4921875 C-17.03425315 33.04619858 -18.99889529 35.52960967 -21 38 C-23.16874252 37.49396008 -24.99967627 37.00016187 -27 36 C-25.51260196 32.58363262 -23.54989523 30.26265692 -21 27.5625 C-13.17364118 19.01777974 -6.21663799 9.77983293 0 0 Z " fill="#E3CF97" transform="translate(247,71)"/>
<path d="M0 0 C0.99 0.33 1.98 0.66 3 1 C2.39700836 8.23589973 0.8849413 14.99370876 -1 22 C-1.66 22 -2.32 22 -3 22 C-3.33 24.31 -3.66 26.62 -4 29 C-5.65 28.67 -7.3 28.34 -9 28 C-10.23593891 24.29218328 -9.5678132 23.32489747 -8.0625 19.8125 C-7.68222656 18.91144531 -7.30195313 18.01039062 -6.91015625 17.08203125 C-6.60980469 16.39496094 -6.30945313 15.70789062 -6 15 C-6.33 14.67 -6.66 14.34 -7 14 C-7.61875 14.20625 -8.2375 14.4125 -8.875 14.625 C-9.57625 14.74875 -10.2775 14.8725 -11 15 C-12.75 13.5625 -12.75 13.5625 -14 12 C-10.52444109 6.78666164 -5.48609715 2.94912067 0 0 Z M-1 4 C-1 7 -1 7 -1 7 Z M-3 7 C-2 9 -2 9 -2 9 Z " fill="#CAAD67" transform="translate(265,42)"/>
<path d="M0 0 C0 7.41725336 -1.75315632 10.66131861 -6.89453125 15.95703125 C-7.58933594 16.63121094 -8.28414062 17.30539063 -9 18 C-9.74636719 18.74636719 -10.49273437 19.49273437 -11.26171875 20.26171875 C-11.83535156 20.83535156 -12.40898437 21.40898438 -13 22 C-12.7215625 20.8553125 -12.7215625 20.8553125 -12.4375 19.6875 C-11.77180827 16.91032625 -11.77180827 16.91032625 -13 14 C-13.66 13.67 -14.32 13.34 -15 13 C-15.33 13.99 -15.66 14.98 -16 16 C-16.99 16 -17.98 16 -19 16 C-19 14.68 -19 13.36 -19 12 C-19.99 12.66 -20.98 13.32 -22 14 C-22.66 13.34 -23.32 12.68 -24 12 C-22.57276992 9.11265436 -21.09704436 6.45520293 -19 4 C-15.1875 3 -15.1875 3 -12 3 C-12.875 7.75 -12.875 7.75 -14 10 C-10.50973732 8.83657911 -10.02351531 7.95095983 -8 5 C-5.69505973 1.63862877 -4.34482822 0 0 0 Z " fill="#E2CA84" transform="translate(237,76)"/>
<path d="M0 0 C1.3303125 0.2784375 1.3303125 0.2784375 2.6875 0.5625 C5.92974092 0.9907205 7.8608186 0.70631582 11 0 C12.99961564 -0.03920815 15.00049364 -0.04443347 17 0 C17.66 0 18.32 0 19 0 C21.66666667 0 24.33333333 0 27 0 C27.33 1.65 27.66 3.3 28 5 C27.01 5.33 26.02 5.66 25 6 C25 6.66 25 7.32 25 8 C21.66666667 8 18.33333333 8 15 8 C13.2984375 8.2784375 13.2984375 8.2784375 11.5625 8.5625 C8 9 8 9 5 8 C3.00038436 7.96079185 0.99950636 7.95556653 -1 8 C-1 4.88742431 -0.82638376 2.89234315 0 0 Z M15 2 C15 2.66 15 3.32 15 4 C15.66 3.67 16.32 3.34 17 3 C16.34 2.67 15.68 2.34 15 2 Z M25 2 C26 4 26 4 26 4 Z M3 3 C3.66 3.66 4.32 4.32 5 5 C5 4.34 5 3.68 5 3 C4.34 3 3.68 3 3 3 Z M7 3 C7 3.99 7 4.98 7 6 C8.65 5.67 10.3 5.34 12 5 C12 4.34 12 3.68 12 3 C10.35 3 8.7 3 7 3 Z M18 4 C19 7 19 7 19 7 Z " fill="#E1DFC8" transform="translate(219,184)"/>
<path d="M0 0 C-0.08378906 0.97839844 -0.16757813 1.95679688 -0.25390625 2.96484375 C-1.62377261 14.7437582 -1.62377261 14.7437582 1 26 C-2.88410563 25.73517462 -4.5462048 25.46605993 -7.3125 22.625 C-10.08088778 18.318619 -10.17995252 15.03867064 -10 10 C-9.67 9.01 -9.34 8.02 -9 7 C-8.01 7 -7.02 7 -6 7 C-5.9175 6.401875 -5.835 5.80375 -5.75 5.1875 C-4.89740169 2.70075492 -2.94409509 0 0 0 Z " fill="#C0A566" transform="translate(241,149)"/>
<path d="M0 0 C0.91894043 0.00281982 1.83788086 0.00563965 2.78466797 0.00854492 C10.92435828 0.20071419 19.38315002 1.47588842 25.6484375 7.16796875 C26.03257812 7.60753906 26.41671875 8.04710937 26.8125 8.5 C23.85980782 8.5 22.17891299 8.04023945 19.4375 7.0625 C6.73732222 2.74077016 -4.87413102 4.34139369 -17.1875 9.5 C-16.8575 8.51 -16.5275 7.52 -16.1875 6.5 C-18.1675 6.5 -20.1475 6.5 -22.1875 6.5 C-15.69830579 0.82195506 -8.26273658 -0.05655277 0 0 Z " fill="#E6D190" transform="translate(208.1875,41.5)"/>
<path d="M0 0 C1.65 0 3.3 0 5 0 C5.33 1.65 5.66 3.3 6 5 C6.45375 4.175 6.9075 3.35 7.375 2.5 C7.91125 1.675 8.4475 0.85 9 0 C9.66 0 10.32 0 11 0 C11.66 1.32 12.32 2.64 13 4 C13.33 2.68 13.66 1.36 14 0 C18.33333333 0 22.66666667 0 27 0 C27 2.64 27 5.28 27 8 C25 9 25 9 22.89453125 8.56640625 C19.15014301 7.8336987 15.48428369 7.89339081 11.6875 7.9375 C10.57665039 7.94426758 10.57665039 7.94426758 9.44335938 7.95117188 C7.62887101 7.96287825 5.81442466 7.98081102 4 8 C4 7.34 4 6.68 4 6 C3.34 6 2.68 6 2 6 C2 6.66 2 7.32 2 8 C1.34 8 0.68 8 0 8 C0 5.36 0 2.72 0 0 Z M16 2 C16 3.32 16 4.64 16 6 C16.99 5.67 17.98 5.34 19 5 C19 4.34 19 3.68 19 3 C18.01 2.67 17.02 2.34 16 2 Z " fill="#E2E0C6" transform="translate(174,184)"/>
<path d="M0 0 C-0.30679688 0.87785156 -0.61359375 1.75570312 -0.9296875 2.66015625 C-2.58329767 8.44779185 -2.72718115 14.46043483 -3.125 20.4375 C-3.21136719 21.64599609 -3.29773438 22.85449219 -3.38671875 24.09960938 C-3.59776679 27.06600678 -3.80198957 30.0327086 -4 33 C-4.33 33 -4.66 33 -5 33 C-5.33 28.38 -5.66 23.76 -6 19 C-6.66 19.33 -7.32 19.66 -8 20 C-7.979375 19.030625 -7.95875 18.06125 -7.9375 17.0625 C-7.64381501 14.12534105 -7.64381501 14.12534105 -9 13 C-11.18687619 22.35280086 -11.37801675 30.52613481 -10 40 C-10.66 40 -11.32 40 -12 40 C-14.03901839 29.38079222 -14.88666214 15.61213712 -9 6 C-8.01 5.67 -7.02 5.34 -6 5 C-6 4.34 -6 3.68 -6 3 C-4.60722783 0.21445565 -3.01148006 0 0 0 Z " fill="#C1A567" transform="translate(175,63)"/>
<path d="M0 0 C0 0.66 0 1.32 0 2 C-0.99 2 -1.98 2 -3 2 C-2.835 2.495 -2.67 2.99 -2.5 3.5 C-1.46161339 8.69193304 -1.17668199 12.47533702 -3.6875 17.125 C-4.8321875 18.548125 -4.8321875 18.548125 -6 20 C-6.43183594 20.56203125 -6.86367187 21.1240625 -7.30859375 21.703125 C-8.47672956 23.18669215 -9.73314353 24.59979021 -11 26 C-11.66 26 -12.32 26 -13 26 C-12.72668136 22.59655363 -12.37091389 19.20658554 -12 15.8125 C-11.92394531 14.85279297 -11.84789062 13.89308594 -11.76953125 12.90429688 C-10.94824064 5.92332667 -10.94824064 5.92332667 -8.16015625 3.20849609 C-3.1533179 0 -3.1533179 0 0 0 Z " fill="#E0C67E" transform="translate(252,52)"/>
<path d="M0 0 C1.47049805 -0.0309375 1.47049805 -0.0309375 2.97070312 -0.0625 C3.90720703 -0.06765625 4.84371094 -0.0728125 5.80859375 -0.078125 C6.67154053 -0.0874707 7.5344873 -0.09681641 8.42358398 -0.10644531 C9.48234741 0.06999512 9.48234741 0.06999512 10.5625 0.25 C12.5625 3.25 12.5625 3.25 13.5625 6.25 C9.73810545 8.02485714 6.70589266 8.52126874 2.5 8.5 C1.47777344 8.50515625 0.45554688 8.5103125 -0.59765625 8.515625 C-3.3984578 8.25365182 -5.05340904 7.69074562 -7.4375 6.25 C-7.4375 5.59 -7.4375 4.93 -7.4375 4.25 C-8.0975 4.25 -8.7575 4.25 -9.4375 4.25 C-9.4375 3.59 -9.4375 2.93 -9.4375 2.25 C-10.0975 1.92 -10.7575 1.59 -11.4375 1.25 C-9.06813435 -1.11936565 -3.18181576 0.01666963 0 0 Z " fill="#AE8840" transform="translate(185.4375,124.75)"/>
<path d="M0 0 C0.33 0 0.66 0 1 0 C1.268125 0.928125 1.53625 1.85625 1.8125 2.8125 C2.91148371 5.76240366 3.62418561 7.05615186 6 9 C6.66 8.67 7.32 8.34 8 8 C8 8.66 8 9.32 8 10 C8.66 10 9.32 10 10 10 C10.268125 10.804375 10.53625 11.60875 10.8125 12.4375 C11.204375 13.283125 11.59625 14.12875 12 15 C12.99 15.33 13.98 15.66 15 16 C15 16.66 15 17.32 15 18 C8.4 18 1.8 18 -5 18 C-5 17.34 -5 16.68 -5 16 C-3.35 15.67 -1.7 15.34 0 15 C0 10.05 0 5.1 0 0 Z " fill="#C1A66A" transform="translate(236,112)"/>
<path d="M0 0 C2.375 1.6875 2.375 1.6875 4 4 C4.25 7.25 4.25 7.25 4 10 C0.37 10 -3.26 10 -7 10 C-6.67 12.31 -6.34 14.62 -6 17 C-8.31074207 15.19159316 -8.98576618 14.04927091 -9.8125 11.1875 C-10.02185856 7.62840444 -9.32812674 5.2812543 -8 2 C-9.32 2.33 -10.64 2.66 -12 3 C-8.25667607 -1.09983097 -5.31465636 -1.41001087 0 0 Z M-5 1 C-7.2773501 3.81509993 -7.2773501 3.81509993 -7 7 C-5.35 7 -3.7 7 -2 7 C-2.66 5.02 -3.32 3.04 -4 1 C-4.33 1 -4.66 1 -5 1 Z " fill="#C6B57F" transform="translate(302,155)"/>
<path d="M0 0 C0.66 0 1.32 0 2 0 C3.2265625 1.7578125 3.2265625 1.7578125 4.625 4.125 C8.21653005 9.71966842 12.62551383 13.87517128 19 16 C21.57265818 16.07029121 24.11641431 16.09370832 26.6875 16.0625 C27.38939453 16.05798828 28.09128906 16.05347656 28.81445312 16.04882812 C30.54300538 16.03706927 32.27151365 16.01913454 34 16 C33.67 16.66 33.34 17.32 33 18 C26.4 18 19.8 18 13 18 C13.33 18.99 13.66 19.98 14 21 C14.66 21.33 15.32 21.66 16 22 C10.59754724 21.17067611 8.16707421 17.12456176 5 13 C2.12215218 8.8641708 0.49441929 5.06779775 0 0 Z " fill="#AA9053" transform="translate(162,108)"/>
<path d="M0 0 C0.66 0 1.32 0 2 0 C2.33 0.66 2.66 1.32 3 2 C3.33 1.34 3.66 0.68 4 0 C4.99 0 5.98 0 7 0 C7.33 0.66 7.66 1.32 8 2 C8.33 1.34 8.66 0.68 9 0 C9.99 0 10.98 0 12 0 C12.33 0.66 12.66 1.32 13 2 C13.33 1.34 13.66 0.68 14 0 C14.99 0 15.98 0 17 0 C17 1.98 17 3.96 17 6 C17.99 6 18.98 6 20 6 C19.67 6.99 19.34 7.98 19 9 C18.33613281 8.9278125 17.67226563 8.855625 16.98828125 8.78125 C16.10527344 8.6884375 15.22226562 8.595625 14.3125 8.5 C13.44238281 8.4071875 12.57226562 8.314375 11.67578125 8.21875 C9.09880809 8.00807774 6.58416375 7.96660208 4 8 C2.68 8 1.36 8 0 8 C0 5.36 0 2.72 0 0 Z " fill="#E1E0C2" transform="translate(265,184)"/>
<path d="M0 0 C1.93166016 0.01740234 1.93166016 0.01740234 3.90234375 0.03515625 C5.19269531 0.04417969 6.48304688 0.05320313 7.8125 0.0625 C8.81152344 0.07410156 9.81054688 0.08570313 10.83984375 0.09765625 C10.83984375 2.07765625 10.83984375 4.05765625 10.83984375 6.09765625 C11.82984375 6.09765625 12.81984375 6.09765625 13.83984375 6.09765625 C13.83984375 4.11765625 13.83984375 2.13765625 13.83984375 0.09765625 C14.49984375 0.09765625 15.15984375 0.09765625 15.83984375 0.09765625 C15.96484375 5.84765625 15.96484375 5.84765625 14.83984375 8.09765625 C13.18984375 8.09765625 11.53984375 8.09765625 9.83984375 8.09765625 C9.17984375 6.44765625 8.51984375 4.79765625 7.83984375 3.09765625 C7.50984375 4.74765625 7.17984375 6.39765625 6.83984375 8.09765625 C5.84984375 8.09765625 4.85984375 8.09765625 3.83984375 8.09765625 C3.50984375 6.44765625 3.17984375 4.79765625 2.83984375 3.09765625 C2.50984375 3.42765625 2.17984375 3.75765625 1.83984375 4.09765625 C1.83984375 5.41765625 1.83984375 6.73765625 1.83984375 8.09765625 C-0.14015625 8.09765625 -2.12015625 8.09765625 -4.16015625 8.09765625 C-4.20257348 5.7647085 -4.20108562 3.43063058 -4.16015625 1.09765625 C-3.16015625 0.09765625 -3.16015625 0.09765625 0 0 Z " fill="#E1E0C9" transform="translate(127.16015625,183.90234375)"/>
<path d="M0 0 C1.32 0 2.64 0 4 0 C3.90460938 0.79664063 3.80921875 1.59328125 3.7109375 2.4140625 C2.80602301 10.38387714 2.80602301 10.38387714 5 18 C3.35 18.66 1.7 19.32 0 20 C-3.34392075 16.51069139 -4.01808238 12.70141896 -4 8 C-3.14356969 4.44252026 -2.5843015 2.5843015 0 0 Z " fill="#B39552" transform="translate(150,156)"/>
<path d="M0 0 C-1 3 -1 3 -2 4 C-1.34 4 -0.68 4 0 4 C-0.875 8.75 -0.875 8.75 -2 11 C-2.66 11 -3.32 11 -4 11 C-4.66 10.34 -5.32 9.68 -6 9 C-6.99 9.495 -6.99 9.495 -8 10 C-8 9.34 -8 8.68 -8 8 C-8.66 7.67 -9.32 7.34 -10 7 C-10 6.01 -10 5.02 -10 4 C-9.195625 3.87625 -8.39125 3.7525 -7.5625 3.625 C-6.716875 3.41875 -5.87125 3.2125 -5 3 C-4.67 2.34 -4.34 1.68 -4 1 C-5.1446875 1.2784375 -5.1446875 1.2784375 -6.3125 1.5625 C-9 2 -9 2 -12 1 C-12 5.62 -12 10.24 -12 15 C-12.33 15 -12.66 15 -13 15 C-13.36644578 13.44033408 -13.71760862 11.87707349 -14.0625 10.3125 C-14.25972656 9.44238281 -14.45695313 8.57226562 -14.66015625 7.67578125 C-15.02631769 4.792786 -14.82797908 2.7772784 -14 0 C-9.42807407 -4.57192593 -5.24634354 -2.22883876 0 0 Z " fill="#C6AE75" transform="translate(199,81)"/>
<path d="M0 0 C0.7734375 -0.00515625 1.546875 -0.0103125 2.34375 -0.015625 C4.5 0.25 4.5 0.25 7.5 2.25 C7.5 1.59 7.5 0.93 7.5 0.25 C8.16 0.25 8.82 0.25 9.5 0.25 C9.5 3.55 9.5 6.85 9.5 10.25 C8.51 9.92 7.52 9.59 6.5 9.25 C5.3125 6.6875 5.3125 6.6875 4.5 4.25 C2.19 3.92 -0.12 3.59 -2.5 3.25 C-2.5 5.23 -2.5 7.21 -2.5 9.25 C-3.16 9.25 -3.82 9.25 -4.5 9.25 C-4.83 8.26 -5.16 7.27 -5.5 6.25 C-6.49 5.92 -7.48 5.59 -8.5 5.25 C-7.42289822 9.55840713 -6.46052484 12.88576723 -3.5 16.25 C-5.96800047 15.09826645 -7.54783565 14.20216435 -9.5 12.25 C-10.64071248 9.00335679 -10.71983896 7.72265377 -9.25 4.5625 C-6.51092848 0.94301264 -4.39914867 -0.02932766 0 0 Z " fill="#B09660" transform="translate(133.5,146.75)"/>
<path d="M0 0 C1.734375 0.93359375 1.734375 0.93359375 3.734375 2.93359375 C2.359375 4.93359375 2.359375 4.93359375 0.734375 6.93359375 C0.074375 6.93359375 -0.585625 6.93359375 -1.265625 6.93359375 C-1.471875 7.49046875 -1.678125 8.04734375 -1.890625 8.62109375 C-3.81563274 11.85860677 -6.30413402 13.61590516 -9.265625 15.93359375 C-8.935625 14.61359375 -8.605625 13.29359375 -8.265625 11.93359375 C-10.1910894 10.78452255 -10.1910894 10.78452255 -12.265625 10.93359375 C-12.925625 10.60359375 -13.585625 10.27359375 -14.265625 9.93359375 C-12.36138986 8.229962 -10.44444753 6.54647797 -8.515625 4.87109375 C-7.97679687 4.38576172 -7.43796875 3.90042969 -6.8828125 3.40039062 C-2.83122753 -0.08298426 -2.83122753 -0.08298426 0 0 Z " fill="#BEA367" transform="translate(221.265625,107.06640625)"/>
<path d="M0 0 C0.33 0 0.66 0 1 0 C1 11.88 1 23.76 1 36 C0.67 36 0.34 36 0 36 C-0.66 27.75 -1.32 19.5 -2 11 C-2.99 10.67 -3.98 10.34 -5 10 C-5.103125 10.61875 -5.20625 11.2375 -5.3125 11.875 C-6 14 -6 14 -9 16 C-9.33 16.99 -9.66 17.98 -10 19 C-10.99 19.33 -11.98 19.66 -13 20 C-11.39692116 15.05637362 -8.51067061 11.29948884 -5.4375 7.1875 C-4.93025391 6.49462891 -4.42300781 5.80175781 -3.90039062 5.08789062 C-2.62933971 3.37002554 -1.31811449 1.68202411 0 0 Z " fill="#E5D29F" transform="translate(245,86)"/>
<path d="M0 0 C0.66 0.33 1.32 0.66 2 1 C2.41119732 5.19421264 2.53973633 7.28000623 -0.03515625 10.71484375 C-3.67875763 13.52315311 -6.34630079 13.62106412 -10.75 13.375 C-11.43449219 13.36082031 -12.11898437 13.34664062 -12.82421875 13.33203125 C-17.81624681 13.18375319 -17.81624681 13.18375319 -19 12 C-19.07205511 10.31391034 -19.08386068 8.62499341 -19.0625 6.9375 C-19.05347656 6.01839844 -19.04445313 5.09929687 -19.03515625 4.15234375 C-19.02355469 3.44207031 -19.01195313 2.73179687 -19 2 C-18.01 2 -17.02 2 -16 2 C-15.608125 3.134375 -15.21625 4.26875 -14.8125 5.4375 C-13.41270847 9.16642384 -13.41270847 9.16642384 -10.4375 10 C-7.99068305 10.18168052 -7.99068305 10.18168052 -6 9 C-6 7.02 -6 5.04 -6 3 C-5.34 3.33 -4.68 3.66 -4 4 C-4 6.31 -4 8.62 -4 11 C-1.08865016 8.59497187 -0.46386911 6.71095287 0 3 C0 2.01 0 1.02 0 0 Z " fill="#B39C67" transform="translate(142,164)"/>
<path d="M0 0 C1.65 0 3.3 0 5 0 C6.6498007 3.29960141 6.38258361 6.99127884 6.5625 10.625 C6.60568359 11.42679688 6.64886719 12.22859375 6.69335938 13.0546875 C6.79951457 15.0362511 6.90026855 17.01810271 7 19 C4.69 19.33 2.38 19.66 0 20 C0 13.4 0 6.8 0 0 Z " fill="#B99851" transform="translate(189,156)"/>
<path d="M0 0 C-1.37691962 2.75383923 -3.36720042 3.51483101 -6 5 C-5.34 6.32 -4.68 7.64 -4 9 C-3.01 9 -2.02 9 -1 9 C-0.67 10.98 -0.34 12.96 0 15 C-2.31 15 -4.62 15 -7 15 C-7.33 17.64 -7.66 20.28 -8 23 C-8.33 23 -8.66 23 -9 23 C-9.1964031 19.70880065 -9.38060745 16.41703066 -9.5625 13.125 C-9.61857422 12.18785156 -9.67464844 11.25070313 -9.73242188 10.28515625 C-9.78076172 9.38925781 -9.82910156 8.49335937 -9.87890625 7.5703125 C-9.9260376 6.74289551 -9.97316895 5.91547852 -10.02172852 5.06298828 C-10 3 -10 3 -9 1 C-5.8035914 -0.06546953 -3.34252724 -0.07427838 0 0 Z " fill="#C2A25A" transform="translate(196,81)"/>
<path d="M0 0 C1.65 0.33 3.3 0.66 5 1 C5 6.94 5 12.88 5 19 C3.02 19 1.04 19 -1 19 C-0.67 12.73 -0.34 6.46 0 0 Z " fill="#C8AD65" transform="translate(279,157)"/>
<path d="M0 0 C0.99 0.33 1.98 0.66 3 1 C2.67 3.97 2.34 6.94 2 10 C1.67 9.01 1.34 8.02 1 7 C0.34 6.67 -0.32 6.34 -1 6 C-1.58007812 6.84884766 -1.58007812 6.84884766 -2.171875 7.71484375 C-2.69265625 8.44832031 -3.2134375 9.18179688 -3.75 9.9375 C-4.26046875 10.66839844 -4.7709375 11.39929688 -5.296875 12.15234375 C-7.20326744 14.2205172 -8.21768274 14.77194121 -11 15 C-12.75 13.5625 -12.75 13.5625 -14 12 C-10.52444109 6.78666164 -5.48609715 2.94912067 0 0 Z " fill="#C8AD6F" transform="translate(265,42)"/>
<path d="M0 0 C2.89932357 2.39509338 3.50168276 4.31245243 4 8 C2.0625 9.6875 2.0625 9.6875 -1 11 C-4.18882878 10.44777498 -7.1124149 9.4616908 -10 8 C-10.33 7.34 -10.66 6.68 -11 6 C-9.73168307 5.18357746 -8.46024069 4.37200895 -7.1875 3.5625 C-6.47980469 3.11003906 -5.77210938 2.65757813 -5.04296875 2.19140625 C-3 1 -3 1 0 0 Z " fill="#DED09B" transform="translate(231,56)"/>
<path d="M0 0 C2.625 0.375 2.625 0.375 5 1 C5 1.66 5 2.32 5 3 C7.41619823 3.25030977 7.41619823 3.25030977 10 3 C10.66 2.01 11.32 1.02 12 0 C13.65 0.33 15.3 0.66 17 1 C17 3.31 17 5.62 17 8 C15.02 8 13.04 8 11 8 C11 7.01 11 6.02 11 5 C9.02 5 7.04 5 5 5 C4.67 5.99 4.34 6.98 4 8 C2.33388095 8.042721 0.66617115 8.04063832 -1 8 C-2 7 -2 7 -2.1875 4.5625 C-2 2 -2 2 0 0 Z M0 3 C0 3.99 0 4.98 0 6 C0.99 6 1.98 6 3 6 C3 5.01 3 4.02 3 3 C2.01 3 1.02 3 0 3 Z M12 3 C12.33 3.99 12.66 4.98 13 6 C13.33 5.01 13.66 4.02 14 3 C13.34 3 12.68 3 12 3 Z " fill="#D9D8BE" transform="translate(156,184)"/>
<path d="M0 0 C0 0.99 0 1.98 0 3 C-0.99 2.67 -1.98 2.34 -3 2 C-2.98839844 3.20398438 -2.97679687 4.40796875 -2.96484375 5.6484375 C-2.95546566 7.22395679 -2.94636548 8.79947775 -2.9375 10.375 C-2.92912109 11.1690625 -2.92074219 11.963125 -2.91210938 12.78125 C-2.88671875 18.7734375 -2.88671875 18.7734375 -4 21 C-2.02 21 -0.04 21 2 21 C2.33 20.34 2.66 19.68 3 19 C3.66 19.33 4.32 19.66 5 20 C5 20.66 5 21.32 5 22 C-2.92 22 -10.84 22 -19 22 C-18.505 20.515 -18.505 20.515 -18 19 C-17.67 19.66 -17.34 20.32 -17 21 C-14.69 21 -12.38 21 -10 21 C-9.67 20.34 -9.34 19.68 -9 19 C-8.01 19 -7.02 19 -6 19 C-4.67216812 17.89672701 -4.67216812 17.89672701 -4.8671875 15.12890625 C-4.87105469 13.36353516 -4.87105469 13.36353516 -4.875 11.5625 C-4.87242187 10.38816406 -4.86984375 9.21382812 -4.8671875 8.00390625 C-4.79234454 5.0759191 -4.79234454 5.0759191 -6 3 C-7.65 3.33 -9.3 3.66 -11 4 C-10 1 -10 1 -8.3125 -0.25 C-5.26772958 -1.23749311 -3.08088616 -0.7002014 0 0 Z " fill="#D2BD85" transform="translate(282,155)"/>
<path d="M0 0 C1.03125 0.144375 2.0625 0.28875 3.125 0.4375 C1.63423566 3.7201932 -0.26120321 6.36827441 -2.5 9.1875 C-3.13164062 9.98671875 -3.76328125 10.7859375 -4.4140625 11.609375 C-5.13722656 12.51429687 -5.13722656 12.51429687 -5.875 13.4375 C-8.04374252 12.93146008 -9.87467627 12.43766187 -11.875 11.4375 C-9.20972404 5.78160924 -6.54839771 0.73933523 0 0 Z " fill="#D4B97C" transform="translate(231.875,95.5625)"/>
<path d="M0 0 C0.99 0.33 1.98 0.66 3 1 C0.83063992 6.83880959 -1.50533367 11.81825337 -5 17 C-5.78215588 19.7282504 -5.78215588 19.7282504 -6 22 C-6.33 22 -6.66 22 -7 22 C-7.27429625 16.60550707 -7.36055646 13.48074195 -4 9 C-5.65 9.33 -7.3 9.66 -9 10 C-8.67 11.65 -8.34 13.3 -8 15 C-8.99 15 -9.98 15 -11 15 C-11.33 14.34 -11.66 13.68 -12 13 C-11.0625 10.875 -11.0625 10.875 -10 9 C-9.01 9 -8.02 9 -7 9 C-6.773125 8.443125 -6.54625 7.88625 -6.3125 7.3125 C-4.64103234 4.36753316 -2.44723648 2.31843456 0 0 Z " fill="#D2B774" transform="translate(179,54)"/>
<path d="M0 0 C-0.54723683 3.37462715 -1.0549 5.08235 -3 8 C-1.68 8 -0.36 8 1 8 C1 8.66 1 9.32 1 10 C-0.32 10 -1.64 10 -3 10 C-3.33 10.99 -3.66 11.98 -4 13 C-4.99 13 -5.98 13 -7 13 C-7 11.68 -7 10.36 -7 9 C-7.99 9.66 -8.98 10.32 -10 11 C-10.66 10.34 -11.32 9.68 -12 9 C-11.265611 7.67870176 -10.51183106 6.36816829 -9.75 5.0625 C-9.33234375 4.33160156 -8.9146875 3.60070312 -8.484375 2.84765625 C-6.05347363 -0.17817625 -3.72788372 0 0 0 Z " fill="#DAC37E" transform="translate(225,79)"/>
<path d="M0 0 C2.9375 0.375 2.9375 0.375 6 1 C7.65497356 4.30994713 7.10084335 7.99123 7.0625 11.625 C7.05798828 12.42679688 7.05347656 13.22859375 7.04882812 14.0546875 C7.03703168 16.03649006 7.01909605 18.01825433 7 20 C5.35 20 3.7 20 2 20 C2 13.73 2 7.46 2 1 C1.34 0.67 0.68 0.34 0 0 Z " fill="#BC9C53" transform="translate(200,156)"/>
<path d="M0 0 C11.00316118 -0.59298473 20.06774745 -0.42453793 30 5 C31.8515625 6.66796875 31.8515625 6.66796875 33 8 C30 8 30 8 26.25 6.625 C20.79391658 4.71671466 15.26233784 4.15009914 9.55078125 3.52734375 C6.16280315 3.02417869 3.20497157 2.18647949 0 1 C0 0.67 0 0.34 0 0 Z " fill="#E7D7A7" transform="translate(202,42)"/>
<path d="M0 0 C0.66 0 1.32 0 2 0 C2.2475 0.969375 2.495 1.93875 2.75 2.9375 C3.64828646 6.03749788 3.64828646 6.03749788 5.75 7 C8.77995949 7 11.1924753 6.08472545 14 5 C11.25 10.875 11.25 10.875 9 12 C1.77669903 12.46601942 1.77669903 12.46601942 -1.5 10.5 C-1.995 10.005 -2.49 9.51 -3 9 C-2.67 8.01 -2.34 7.02 -2 6 C-1.34 6.66 -0.68 7.32 0 8 C0.66 8 1.32 8 2 8 C1.34 7.01 0.68 6.02 0 5 C-0.125 2.3125 -0.125 2.3125 0 0 Z " fill="#B99C5A" transform="translate(171,165)"/>
<path d="M0 0 C0.99 0.33 1.98 0.66 3 1 C3.02708567 2.60407328 3.04643483 4.2082785 3.0625 5.8125 C3.07410156 6.70582031 3.08570313 7.59914062 3.09765625 8.51953125 C3 11 3 11 2 14 C1.34 14 0.68 14 0 14 C-0.66 15.32 -1.32 16.64 -2 18 C-2.66 18 -3.32 18 -4 18 C-3.68458836 14.66468965 -3.34869692 11.33199282 -3 8 C-2.9278125 7.278125 -2.855625 6.55625 -2.78125 5.8125 C-2.59292452 4.1982816 -2.30564883 2.59616613 -2 1 C-1.34 0.67 -0.68 0.34 0 0 Z " fill="#C5A55E" transform="translate(257,155)"/>
<path d="M0 0 C1.8125 1.125 1.8125 1.125 3 3 C3.6875 6.6875 3.6875 6.6875 4 10 C1.36 10 -1.28 10 -4 10 C-4 9.67 -4 9.34 -4 9 C-2.02 8.67 -0.04 8.34 2 8 C1.21869929 5.50447516 1.21869929 5.50447516 0 3 C-3 1.66666667 -3 1.66666667 -6 3 C-6.66 3.66 -7.32 4.32 -8 5 C-8 4.01 -8 3.02 -8 2 C-9.5833253 3.2488427 -9.5833253 3.2488427 -11 5 C-11 6.32 -11 7.64 -11 9 C-11.99 9.495 -11.99 9.495 -13 10 C-13 11.98 -13 13.96 -13 16 C-15.25955236 12.61067146 -15.21804059 10.96034384 -14.61328125 7.00390625 C-13.6130982 3.7357922 -11.62948671 2.06602527 -9 0 C-5.45026831 -1.1832439 -3.60040463 -0.90010116 0 0 Z " fill="#B49E68" transform="translate(181,155)"/>
<path d="M0 0 C1.85546875 0.95703125 1.85546875 0.95703125 2.85546875 2.95703125 C-0.41759062 4.90528087 -2.4160774 6.00073848 -6.26953125 5.76953125 C-8.78944364 5.0573821 -10.88346622 4.26149185 -13.14453125 2.95703125 C-13.14453125 2.29703125 -13.14453125 1.63703125 -13.14453125 0.95703125 C-8.11274757 -2.5265113 -5.41037498 -1.98471042 0 0 Z " fill="#E3D69E" transform="translate(221.14453125,67.04296875)"/>
<path d="M0 0 C0.66 0 1.32 0 2 0 C3.34413413 2.68826826 3.13239863 4.81235402 3.125 7.8125 C3.12757813 8.85019531 3.13015625 9.88789063 3.1328125 10.95703125 C3.01076175 13.75342942 2.63363355 16.27939879 2 19 C2.99 18.67 3.98 18.34 5 18 C5.66 18.33 6.32 18.66 7 19 C6.67 12.73 6.34 6.46 6 0 C6.66 0.33 7.32 0.66 8 1 C8.28756297 3.6503226 8.46773109 6.21684759 8.5625 8.875 C8.74411602 14.51760981 8.74411602 14.51760981 10 20 C6.37 20 2.74 20 -1 20 C-0.67 18.68 -0.34 17.36 0 16 C0.06926968 13.24029592 0.0941736 10.50803958 0.0625 7.75 C0.05798828 7.00492188 0.05347656 6.25984375 0.04882812 5.4921875 C0.03709246 3.6614236 0.0191585 1.83070127 0 0 Z " fill="#BBA973" transform="translate(200,157)"/>
<path d="M0 0 C0.99 0.66 1.98 1.32 3 2 C3 2.66 3 3.32 3 4 C-2.78435518 7.25369979 -2.78435518 7.25369979 -6.24609375 6.53125 C-8.20151575 5.77836025 -10.10634719 4.89699344 -12 4 C-11 1 -11 1 -9.375 -0.25 C-5.98601244 -1.3202066 -3.43619696 -0.7497157 0 0 Z " fill="#D5C492" transform="translate(208,73)"/>
<path d="M0 0 C1.31965723 3.95897169 1 7.868908 1 12 C1.33 13.32 1.66 14.64 2 16 C6.455 16.99 6.455 16.99 11 18 C11 17.34 11 16.68 11 16 C9.68 16 8.36 16 7 16 C7 15.34 7 14.68 7 14 C8.093125 13.855625 9.18625 13.71125 10.3125 13.5625 C13.93122987 13.11711896 13.93122987 13.11711896 17 12 C15.75023244 15.65316671 15.32901247 16.78065836 12 19 C7.28813675 19.53198456 5.10633888 19.64536434 1 17.25 C-2.00236924 12.37114999 -1.57841554 7.59410458 -1 2 C-0.67 1.34 -0.34 0.68 0 0 Z " fill="#C9B780" transform="translate(289,158)"/>
<path d="M0 0 C1.32 0.33 2.64 0.66 4 1 C4 1.66 4 2.32 4 3 C4.66 3 5.32 3 6 3 C6 3.66 6 4.32 6 5 C6.5775 4.855625 7.155 4.71125 7.75 4.5625 C9.83333333 4.04166667 11.91666667 3.52083333 14 3 C14.99 4.485 14.99 4.485 16 6 C18.19454681 6.57993699 18.19454681 6.57993699 20.625 6.6875 C21.44226563 6.75324219 22.25953125 6.81898437 23.1015625 6.88671875 C23.72804687 6.92410156 24.35453125 6.96148437 25 7 C20.71525493 9.85649671 17.02877493 9.60345299 12 9 C6.6235721 7.30555509 3.15807426 4.7371114 0 0 Z " fill="#A28850" transform="translate(170,114)"/>
<path d="M0 0 C0.66 0.33 1.32 0.66 2 1 C1.34 1.66 0.68 2.32 0 3 C-0.46396693 5.89223503 -0.46396693 5.89223503 -0.625 9.125 C-0.69976562 10.22070312 -0.77453125 11.31640625 -0.8515625 12.4453125 C-0.90054688 13.28835937 -0.94953125 14.13140625 -1 15 C-0.34 15 0.32 15 1 15 C-0.36944102 17.94956528 -1.87830409 20.52468811 -4 23 C-4.66 23 -5.32 23 -6 23 C-5.58416251 19.53869885 -5.13868712 16.08185653 -4.6875 12.625 C-4.56955078 11.64015625 -4.45160156 10.6553125 -4.33007812 9.640625 C-4.20439453 8.69960938 -4.07871094 7.75859375 -3.94921875 6.7890625 C-3.78425903 5.48509521 -3.78425903 5.48509521 -3.6159668 4.15478516 C-3 2 -3 2 0 0 Z " fill="#E1D09B" transform="translate(245,55)"/>
<path d="M0 0 C1.3921875 0.2784375 1.3921875 0.2784375 2.8125 0.5625 C6.01343771 1.24123881 6.01343771 1.24123881 9 0 C9 2.64 9 5.28 9 8 C5.7 8 2.4 8 -1 8 C-0.67 5.36 -0.34 2.72 0 0 Z M2 3 C2 3.99 2 4.98 2 6 C2.66 6 3.32 6 4 6 C4 5.01 4 4.02 4 3 C3.34 3 2.68 3 2 3 Z " fill="#DEDBC2" transform="translate(144,184)"/>
<path d="M0 0 C0.61875 0.165 1.2375 0.33 1.875 0.5 C4.16786836 1.23577017 4.16786836 1.23577017 7 0 C7 2.64 7 5.28 7 8 C4.69 8.33 2.38 8.66 0 9 C-1.3950848 6.70221327 -2.07438619 5.5207033 -1.6875 2.8125 C-1 1 -1 1 0 0 Z M3 3 C3.66 3.66 4.32 4.32 5 5 C5 4.34 5 3.68 5 3 C4.34 3 3.68 3 3 3 Z " fill="#E6E5CE" transform="translate(293,184)"/>
<path d="M0 0 C0.99 0 1.98 0 3 0 C3.33 0.66 3.66 1.32 4 2 C4.33 1.34 4.66 0.68 5 0 C5.99 0 6.98 0 8 0 C8 2.64 8 5.28 8 8 C4.7 8 1.4 8 -2 8 C-1.34 5.36 -0.68 2.72 0 0 Z " fill="#E3E2C8" transform="translate(206,184)"/>
<path d="M0 0 C0.804375 0.185625 1.60875 0.37125 2.4375 0.5625 C3.283125 0.706875 4.12875 0.85125 5 1 C5.33 0.67 5.66 0.34 6 0 C8.67058851 -0.14115161 11.32432238 -0.04247107 14 0 C14.33 1.65 14.66 3.3 15 5 C13.3125 6.1875 13.3125 6.1875 11 7 C9.29883624 6.05988318 7.63495707 5.05104383 6 4 C2.80604974 3.28598768 2.80604974 3.28598768 0 3 C0 2.01 0 1.02 0 0 Z M12 2 C13 4 13 4 13 4 Z " fill="#DFDDBE" transform="translate(232,184)"/>
<path d="M0 0 C-0.33 1.65 -0.66 3.3 -1 5 C-1.66 5 -2.32 5 -3 5 C-3.66 4.01 -4.32 3.02 -5 2 C-6.44207941 4.88415883 -6.09394887 7.41721528 -6.0625 10.625 C-6.05347656 11.81351563 -6.04445313 13.00203125 -6.03515625 14.2265625 C-6.02355469 15.14179688 -6.01195312 16.05703125 -6 17 C-9.11920333 14.14983847 -9.74812032 12.2819546 -10 8 C-9.0625 4.625 -9.0625 4.625 -8 2 C-9.32 2.33 -10.64 2.66 -12 3 C-8.16772312 -1.19725563 -5.42060446 -1.08412089 0 0 Z " fill="#C9B278" transform="translate(302,155)"/>
<path d="M0 0 C1.32 0 2.64 0 4 0 C4.33 1.32 4.66 2.64 5 4 C3.02 4.66 1.04 5.32 -1 6 C-1 6.66 -1 7.32 -1 8 C-3.51089376 8.89674777 -4.64535109 9.13172674 -7.1875 8.1875 C-9 7 -9 7 -10 5 C-8.906875 4.731875 -7.81375 4.46375 -6.6875 4.1875 C-3.15904513 3.05121792 -2.38365517 2.49716256 0 0 Z " fill="#B49146" transform="translate(206,119)"/>
<path d="M0 0 C0.99 0 1.98 0 3 0 C3.31563182 5.26053037 2.66590937 8.44573816 0 13 C-0.99 13 -1.98 13 -3 13 C-3.66 12.01 -4.32 11.02 -5 10 C-3.6823614 6.31061191 -2.17294197 3.25941295 0 0 Z " fill="#C2A35E" transform="translate(263,49)"/>
<path d="M0 0 C0.66 0 1.32 0 2 0 C3.2265625 1.7578125 3.2265625 1.7578125 4.625 4.125 C7.69876071 8.94106567 11.23976621 11.91913803 16 15 C13 16 13 16 10 15 C8.3125 13.4375 8.3125 13.4375 7 12 C7.33 13.32 7.66 14.64 8 16 C3.06563311 11.80578814 0.61674918 6.32167908 0 0 Z " fill="#AA905B" transform="translate(162,108)"/>
<path d="M0 0 C0.66 0 1.32 0 2 0 C2.33 0.66 2.66 1.32 3 2 C3.33 1.34 3.66 0.68 4 0 C4.99 0 5.98 0 7 0 C9 2 9 2 9.125 5.125 C9.08375 6.07375 9.0425 7.0225 9 8 C6 8 3 8 0 8 C0 5.36 0 2.72 0 0 Z " fill="#E5E1CA" transform="translate(265,184)"/>
<path d="M0 0 C3.3 0 6.6 0 10 0 C10 0.99 10 1.98 10 3 C8.68 3 7.36 3 6 3 C6 4.32 6 5.64 6 7 C5.67 7.66 5.34 8.32 5 9 C4.77141886 11.0374763 4.58975722 13.08040303 4.4375 15.125 C4.35371094 16.22070312 4.26992188 17.31640625 4.18359375 18.4453125 C4.12300781 19.28835937 4.06242187 20.13140625 4 21 C3.67 21 3.34 21 3 21 C2.67 15.06 2.34 9.12 2 3 C1.34 2.67 0.68 2.34 0 2 C0 1.34 0 0.68 0 0 Z " fill="#C6B078" transform="translate(262,155)"/>
<path d="M0 0 C0.66 0 1.32 0 2 0 C2.33 1.65 2.66 3.3 3 5 C2.34 4.67 1.68 4.34 1 4 C-1.18687619 13.35280086 -1.37801675 21.52613481 0 31 C-0.66 31 -1.32 31 -2 31 C-3.90854962 21.06027356 -3.85213804 10.73082392 -1 1 C-0.67 0.67 -0.34 0.34 0 0 Z " fill="#BCA26A" transform="translate(165,72)"/>
<path d="M0 0 C8.38709677 -0.16129032 8.38709677 -0.16129032 11 1 C12.25 3.0625 12.25 3.0625 13 5 C7.66666667 5 2.33333333 5 -3 5 C-3.33 4.34 -3.66 3.68 -4 3 C-2.68 2.67 -1.36 2.34 0 2 C0 1.34 0 0.68 0 0 Z M6 1 C7 4 7 4 7 4 Z " fill="#EAE8CC" transform="translate(231,187)"/>
<path d="M0 0 C1.875 0.625 1.875 0.625 4 2 C5.25 5.125 5.25 5.125 6 8 C2.37 8.33 -1.26 8.66 -5 9 C-5.33 7.35 -5.66 5.7 -6 4 C-5.67 4.66 -5.34 5.32 -5 6 C-3.35 6 -1.7 6 0 6 C0 4.02 0 2.04 0 0 Z " fill="#AE9A61" transform="translate(178,156)"/>
<path d="M0 0 C-1.98 2.97 -1.98 2.97 -4 6 C-4.99 5.34 -5.98 4.68 -7 4 C-7.33 4.99 -7.66 5.98 -8 7 C-8.99 7 -9.98 7 -11 7 C-11.33 7.99 -11.66 8.98 -12 10 C-13.65 10.33 -15.3 10.66 -17 11 C-15.88625 9.948125 -15.88625 9.948125 -14.75 8.875 C-11.90788924 6.10510404 -11.90788924 6.10510404 -10 2.75 C-8 0 -8 0 -5.4375 -0.9375 C-3 -1 -3 -1 0 0 Z " fill="#CBB479" transform="translate(213,83)"/>
<path d="M0 0 C1.4370809 -0.05422947 2.87475462 -0.09289723 4.3125 -0.125 C5.11300781 -0.14820313 5.91351563 -0.17140625 6.73828125 -0.1953125 C9 0 9 0 12 2 C12 1.34 12 0.68 12 0 C12.66 0 13.32 0 14 0 C14 3.3 14 6.6 14 10 C13.01 9.67 12.02 9.34 11 9 C10.71125 8.175 10.4225 7.35 10.125 6.5 C9.75375 5.675 9.3825 4.85 9 4 C6.60280568 3.32041397 6.60280568 3.32041397 4 3 C1.6875 1.4375 1.6875 1.4375 0 0 Z " fill="#B29E6A" transform="translate(129,147)"/>
<path d="M0 0 C0 0.33 0 0.66 0 1 C-0.93972656 1.18175781 -0.93972656 1.18175781 -1.8984375 1.3671875 C-2.71570313 1.53476563 -3.53296875 1.70234375 -4.375 1.875 C-5.18710938 2.03742188 -5.99921875 2.19984375 -6.8359375 2.3671875 C-9.18673923 2.86658932 -9.18673923 2.86658932 -11 5 C-11.24377883 8.35744112 -11.24377883 8.35744112 -11.125 12.125 C-11.10695312 13.40632812 -11.08890625 14.68765625 -11.0703125 16.0078125 C-11.04710937 16.99523437 -11.02390625 17.98265625 -11 19 C-13.09933151 17.29603331 -13.92588781 16.39392968 -14.43359375 13.6953125 C-14.44000598 9.4760683 -14.41504836 6.73786375 -12.3125 3 C-8.17159849 -0.58132022 -5.3088142 -1.51680406 0 0 Z " fill="#BFAB79" transform="translate(225,155)"/>
<path d="M0 0 C-0.309375 0.969375 -0.61875 1.93875 -0.9375 2.9375 C-2.17967097 7.23664491 -2.61684853 11.55342634 -3 16 C-3.99 15.01 -4.98 14.02 -6 13 C-5.34 12.67 -4.68 12.34 -4 12 C-5.63473516 8.87525373 -5.63473516 8.87525373 -8.125 8.3125 C-9.053125 8.1578125 -9.053125 8.1578125 -10 8 C-8.625 6.5 -8.625 6.5 -7 5 C-6.34 5 -5.68 5 -5 5 C-5.33 4.34 -5.66 3.68 -6 3 C-4.60722783 0.21445565 -3.01148006 0 0 0 Z " fill="#C8AC6E" transform="translate(175,63)"/>
<path d="M0 0 C4.59306496 1.4859916 7.43569245 3.85014682 11 7 C8 8 8 8 5 7 C5 8.32 5 9.64 5 11 C0.125 9.25 0.125 9.25 -1 7 C0.32 7 1.64 7 3 7 C2.505 6.21625 2.01 5.4325 1.5 4.625 C0 2 0 2 0 0 Z " fill="#B09558" transform="translate(131,156)"/>
<path d="M0 0 C1.65 0 3.3 0 5 0 C6.59412284 3.18824568 6.10174735 6.62896662 6.0625 10.125 C6.05798828 10.87910156 6.05347656 11.63320312 6.04882812 12.41015625 C6.03703499 14.27347127 6.01909942 16.13674555 6 18 C5.67 18 5.34 18 5 18 C4.67 14.7 4.34 11.4 4 8 C3.01 8 2.02 8 1 8 C0.67 5.36 0.34 2.72 0 0 Z " fill="#BC9E5C" transform="translate(189,156)"/>
<path d="M0 0 C1.65 0.33 3.3 0.66 5 1 C5 3.31 5 5.62 5 8 C3.02 8 1.04 8 -1 8 C-1 7.01 -1 6.02 -1 5 C-2.65 5 -4.3 5 -6 5 C-6 4.67 -6 4.34 -6 4 C-4.35 4 -2.7 4 -1 4 C-0.67 2.68 -0.34 1.36 0 0 Z M0 3 C0.33 3.99 0.66 4.98 1 6 C1.33 5.01 1.66 4.02 2 3 C1.34 3 0.68 3 0 3 Z " fill="#E8E7CB" transform="translate(168,184)"/>
<path d="M0 0 C0.9590625 0.2475 0.9590625 0.2475 1.9375 0.5 C4.04582216 1.24598544 4.04582216 1.24598544 6 0 C6.99 0.66 7.98 1.32 9 2 C5.17560545 3.77485714 2.14339266 4.27126874 -2.0625 4.25 C-3.08472656 4.25515625 -4.10695312 4.2603125 -5.16015625 4.265625 C-7.9609578 4.00365182 -9.61590904 3.44074562 -12 2 C-9.59511789 0.79755894 -8.10949969 0.93137721 -5.4375 1 C-3.95881779 1.03785426 -2.47844212 1.04629173 -1 1 C-0.67 0.67 -0.34 0.34 0 0 Z " fill="#A88E56" transform="translate(190,129)"/>
<path d="M0 0 C1.4606285 2.64738916 2 3.89448334 2 7 C2.66 6.67 3.32 6.34 4 6 C4 9.96 4 13.92 4 18 C3.67 18 3.34 18 3 18 C3 16.02 3 14.04 3 12 C2.360625 11.7525 1.72125 11.505 1.0625 11.25 C-1 10 -1 10 -1.875 8.25 C-2.0455723 5.17969854 -1.09788947 2.84159626 0 0 Z " fill="#BEA15B" transform="translate(166,75)"/>
<path d="M0 0 C1.67542976 0.28604898 3.34385343 0.61781233 5 1 C5 3.31 5 5.62 5 8 C1.25 9.125 1.25 9.125 -1 8 C-1.04241723 5.66705225 -1.04092937 3.33297433 -1 1 C-0.67 0.67 -0.34 0.34 0 0 Z " fill="#E6E5CF" transform="translate(302,184)"/>
<path d="M0 0 C0.33 0.99 0.66 1.98 1 3 C0.67 3.66 0.34 4.32 0 5 C1.98 5 3.96 5 6 5 C6.33 4.34 6.66 3.68 7 3 C7.66 3.33 8.32 3.66 9 4 C9 4.66 9 5.32 9 6 C1.08 6 -6.84 6 -15 6 C-14.67 5.01 -14.34 4.02 -14 3 C-13.67 3.66 -13.34 4.32 -13 5 C-10.69 5 -8.38 5 -6 5 C-5.67 4.34 -5.34 3.68 -5 3 C-4.01 3 -3.02 3 -2 3 C-1.34 2.01 -0.68 1.02 0 0 Z " fill="#CCC09A" transform="translate(278,171)"/>
<path d="M0 0 C0.66 0.99 1.32 1.98 2 3 C5.53672026 3.30754089 8.61045199 3.04293785 12 2 C10.47793991 4.62901288 9.15634036 6.84365964 7 9 C4.31160615 9.26991906 1.70858064 9.08737357 -1 9 C-1 8.67 -1 8.34 -1 8 C0.98 8 2.96 8 5 8 C5 7.01 5 6.02 5 5 C3.35 4.67 1.7 4.34 0 4 C0 2.68 0 1.36 0 0 Z " fill="#BDAA79" transform="translate(218,168)"/>
<path d="M0 0 C0.99 0.33 1.98 0.66 3 1 C2.67 3.97 2.34 6.94 2 10 C1.67 9.01 1.34 8.02 1 7 C0.34 6.67 -0.32 6.34 -1 6 C-1.99 6.33 -2.98 6.66 -4 7 C-6.1875 6.5625 -6.1875 6.5625 -8 6 C-6.7391988 4.96680187 -5.46596742 3.94875621 -4.1875 2.9375 C-3.47980469 2.36902344 -2.77210938 1.80054688 -2.04296875 1.21484375 C-1.36878906 0.81394531 -0.69460938 0.41304687 0 0 Z " fill="#BFAE7A" transform="translate(265,42)"/>
<path d="M0 0 C-3.95702276 4.29619614 -6.86020672 6.86045363 -12.8125 7.125 C-13.534375 7.08375 -14.25625 7.0425 -15 7 C-12.35261084 5.5393715 -11.10551666 5 -8 5 C-8.33 3.35 -8.66 1.7 -9 0 C-5.67465243 -1.10844919 -3.37817425 -0.84454356 0 0 Z " fill="#AD9156" transform="translate(207,114)"/>
<path d="M0 0 C1.66194449 2.49291673 2.4278766 4.06094134 3.3125 6.8125 C5.29217922 12.27922841 8.80205881 16.02300308 13 20 C8.75153925 19.52794881 6.73180712 17.11122478 4 14 C4 13.34 4 12.68 4 12 C3.34 11.67 2.68 11.34 2 11 C0.06669424 7.24079436 -0.19491883 4.19075475 0 0 Z " fill="#B29867" transform="translate(171,97)"/>
<path d="M0 0 C0.66 0.33 1.32 0.66 2 1 C2.625 3.0625 2.625 3.0625 3 5 C0.03 7.475 0.03 7.475 -3 10 C-3.103125 9.21625 -3.20625 8.4325 -3.3125 7.625 C-3.77595022 4.66954819 -3.77595022 4.66954819 -7 3 C-3.535 2.505 -3.535 2.505 0 2 C0 1.34 0 0.68 0 0 Z " fill="#C6A25B" transform="translate(217,99)"/>
<path d="M0 0 C0.66 0.33 1.32 0.66 2 1 C-0.75 5.875 -0.75 5.875 -3 7 C-10.22330097 7.46601942 -10.22330097 7.46601942 -13.5 5.5 C-13.995 5.005 -14.49 4.51 -15 4 C-14.67 3.01 -14.34 2.02 -14 1 C-13.34 1.99 -12.68 2.98 -12 4 C-9.80545319 4.57993699 -9.80545319 4.57993699 -7.375 4.6875 C-6.55773437 4.75324219 -5.74046875 4.81898438 -4.8984375 4.88671875 C-4.27195313 4.92410156 -3.64546875 4.96148437 -3 5 C-3.33 4.01 -3.66 3.02 -4 2 C-2.125 0.9375 -2.125 0.9375 0 0 Z " fill="#B9A878" transform="translate(183,170)"/>
<path d="M0 0 C-2.64 0.66 -5.28 1.32 -8 2 C-8 2.66 -8 3.32 -8 4 C-7.34 4.66 -6.68 5.32 -6 6 C-7.65 6.66 -9.3 7.32 -11 8 C-10.67 7.01 -10.34 6.02 -10 5 C-11.98 5 -13.96 5 -16 5 C-11.26825761 0.85972541 -6.13458028 -1.53364507 0 0 Z " fill="#DFCF9E" transform="translate(202,43)"/>
<path d="M0 0 C0.99 0 1.98 0 3 0 C4.25664978 2.90600261 5 4.79604584 5 8 C2.69 8 0.38 8 -2 8 C-1.34 5.36 -0.68 2.72 0 0 Z " fill="#E3E2CB" transform="translate(259,184)"/>
<path d="M0 0 C0.53625 0.825 1.0725 1.65 1.625 2.5 C3.80271869 5.33951208 3.80271869 5.33951208 7.25 5.3125 C8.1575 5.209375 9.065 5.10625 10 5 C10 5.66 10 6.32 10 7 C10.66 7.33 11.32 7.66 12 8 C10.06318839 8.08107583 8.1254066 8.13922475 6.1875 8.1875 C5.10855469 8.22230469 4.02960938 8.25710937 2.91796875 8.29296875 C0 8 0 8 -1.88671875 6.48828125 C-2.43779297 5.75158203 -2.43779297 5.75158203 -3 5 C-1.68 5 -0.36 5 1 5 C0.67 3.35 0.34 1.7 0 0 Z " fill="#C0B187" transform="translate(240,169)"/>
<path d="M0 0 C-0.33 1.65 -0.66 3.3 -1 5 C-3.64 5 -6.28 5 -9 5 C-9 4.01 -9 3.02 -9 2 C-5.5647952 -0.29013653 -4.014669 -0.17842973 0 0 Z " fill="#E9CE86" transform="translate(233,59)"/>
<path d="M0 0 C2.475 0.495 2.475 0.495 5 1 C5.33 2.65 5.66 4.3 6 6 C4.34385343 6.38218767 2.67542976 6.71395102 1 7 C0 6 0 6 -0.0625 2.9375 C-0.041875 1.968125 -0.02125 0.99875 0 0 Z " fill="#BA9E5D" transform="translate(224,157)"/>
<path d="M0 0 C2.63840764 1.03937271 3.54887645 2.4663835 5.0625 4.8125 C4.4025 4.8125 3.7425 4.8125 3.0625 4.8125 C2.7325 5.4725 2.4025 6.1325 2.0625 6.8125 C1.0725 6.4825 0.0825 6.1525 -0.9375 5.8125 C-0.9375 5.1525 -0.9375 4.4925 -0.9375 3.8125 C-1.5975 3.8125 -2.2575 3.8125 -2.9375 3.8125 C-3.2675 2.8225 -3.5975 1.8325 -3.9375 0.8125 C-1.9375 -0.1875 -1.9375 -0.1875 0 0 Z " fill="#A9863C" transform="translate(176.9375,113.1875)"/>
<path d="M0 0 C5.34586466 0.59398496 5.34586466 0.59398496 7.8125 2.125 C9.58939417 4.93062237 9.69255124 7.74104317 10 11 C7.36 11 4.72 11 2 11 C2 10.67 2 10.34 2 10 C3.98 9.67 5.96 9.34 8 9 C7.43923199 6.50995496 7.43923199 6.50995496 6 4 C2.97017694 2.62810173 2.97017694 2.62810173 0 2 C0 1.34 0 0.68 0 0 Z " fill="#B6A679" transform="translate(175,154)"/>
<path d="M0 0 C1.423125 0.495 1.423125 0.495 2.875 1 C5.77062452 2.10159191 5.77062452 2.10159191 8 2 C7.34 3.32 6.68 4.64 6 6 C4.35 6 2.7 6 1 6 C0.67 4.02 0.34 2.04 0 0 Z " fill="#D7BB74" transform="translate(249,54)"/>
<path d="M0 0 C1.32 0.66 2.64 1.32 4 2 C4 2.99 4 3.98 4 5 C3.34 4.67 2.68 4.34 2 4 C1.34 5.98 0.68 7.96 0 10 C-1.58538318 7.48203847 -2.0373656 6.32134414 -1.6875 3.3125 C-1 1 -1 1 0 0 Z " fill="#C7AD6C" transform="translate(255,151)"/>
<path d="M0 0 C0 3.26795703 -0.57850516 5.0821948 -2 8 C-2.99 8.66 -3.98 9.32 -5 10 C-5.33 10.99 -5.66 11.98 -6 13 C-6.99 13.33 -7.98 13.66 -9 14 C-7.65070536 10.16336928 -5.92248975 7.34827431 -3.375 4.1875 C-2.42753906 3.00220703 -2.42753906 3.00220703 -1.4609375 1.79296875 C-0.97882813 1.20128906 -0.49671875 0.60960938 0 0 Z " fill="#DCC997" transform="translate(241,92)"/>
<path d="M0 0 C0.598125 0.185625 1.19625 0.37125 1.8125 0.5625 C4.16408762 1.22093687 4.16408762 1.22093687 7 0 C6.34 2.64 5.68 5.28 5 8 C4.34 8 3.68 8 3 8 C0 2.25 0 2.25 0 0 Z " fill="#E7E5D0" transform="translate(284,184)"/>
<path d="M0 0 C0.66 0.33 1.32 0.66 2 1 C0.515 2.485 0.515 2.485 -1 4 C-0.34 4.33 0.32 4.66 1 5 C1 5.66 1 6.32 1 7 C1.99 7.33 2.98 7.66 4 8 C0.28111761 7.49287967 -2.73454239 6.88391785 -6 5 C-6 4.34 -6 3.68 -6 3 C-4.03533587 1.93224776 -2.03144641 0.93446535 0 0 Z " fill="#E6D5A2" transform="translate(214,65)"/>
<path d="M0 0 C0.99 0.33 1.98 0.66 3 1 C2.67 5.29 2.34 9.58 2 14 C-0.08557757 10.87163364 -0.36393593 9.51376966 -0.6875 5.875 C-0.77386719 4.98554687 -0.86023438 4.09609375 -0.94921875 3.1796875 C-0.96597656 2.46039063 -0.98273438 1.74109375 -1 1 C-0.67 0.67 -0.34 0.34 0 0 Z " fill="#D9C17C" transform="translate(236,101)"/>
<path d="M0 0 C0.66 0.33 1.32 0.66 2 1 C2 1.66 2 2.32 2 3 C-0.97 3.66 -3.94 4.32 -7 5 C-6.67 6.32 -6.34 7.64 -6 9 C-8.475 8.01 -8.475 8.01 -11 7 C-7.54143152 4.05004453 -4.19978515 1.77324262 0 0 Z " fill="#E7DAAA" transform="translate(231,56)"/>
<path d="M0 0 C2.31 0 4.62 0 7 0 C7 0.99 7 1.98 7 3 C6.34 3 5.68 3 5 3 C5 4.65 5 6.3 5 8 C4.34 8 3.68 8 3 8 C2.814375 6.8553125 2.814375 6.8553125 2.625 5.6875 C2.11897208 2.79732864 2.11897208 2.79732864 0 0 Z " fill="#E0E2C8" transform="translate(247,184)"/>
<path d="M0 0 C-0.33 1.65 -0.66 3.3 -1 5 C-1.66 5 -2.32 5 -3 5 C-3.66 4.01 -4.32 3.02 -5 2 C-7.31 2.33 -9.62 2.66 -12 3 C-8.16772312 -1.19725563 -5.42060446 -1.08412089 0 0 Z " fill="#D0C38F" transform="translate(302,155)"/>
<path d="M0 0 C-0.3125 2.375 -0.3125 2.375 -1 5 C-1.99 5.66 -2.98 6.32 -4 7 C-4 5.68 -4 4.36 -4 3 C-5.32 3.33 -6.64 3.66 -8 4 C-7.67 3.01 -7.34 2.02 -7 1 C-4.52260646 0.09162237 -2.66420516 0 0 0 Z " fill="#DCCB9A" transform="translate(225,79)"/>
<path d="M0 0 C2.475 0.99 2.475 0.99 5 2 C5.33 1.34 5.66 0.68 6 0 C5.75 1.875 5.75 1.875 5 4 C3.68352881 4.69937532 2.34977849 5.36729133 1 6 C0.67 6.99 0.34 7.98 0 9 C0 6.03 0 3.06 0 0 Z " fill="#BFA254" transform="translate(233,156)"/>
<path d="M0 0 C1.32 0 2.64 0 4 0 C4.66 3.63 5.32 7.26 6 11 C3.35250867 8.35250867 1.71837368 6.27309273 0 3 C0 2.01 0 1.02 0 0 Z " fill="#A88D53" transform="translate(164,103)"/>
<path d="M0 0 C1.14077657 3.42232972 1.09815117 6.08673217 1.0625 9.6875 C1.05347656 10.86699219 1.04445312 12.04648438 1.03515625 13.26171875 C1.02355469 14.16535156 1.01195312 15.06898437 1 16 C0.67 16 0.34 16 0 16 C-0.03738281 15.30132812 -0.07476562 14.60265625 -0.11328125 13.8828125 C-0.17902344 12.97273438 -0.24476563 12.06265625 -0.3125 11.125 C-0.37050781 10.22007813 -0.42851562 9.31515625 -0.48828125 8.3828125 C-0.7882039 5.63778399 -0.7882039 5.63778399 -4 4 C-2.68 2.68 -1.36 1.36 0 0 Z " fill="#EAD085" transform="translate(244,91)"/>
<path d="M0 0 C0.99 0 1.98 0 3 0 C3 1.98 3 3.96 3 6 C3.99 6 4.98 6 6 6 C5.67 6.99 5.34 7.98 5 9 C3.0625 8.4375 3.0625 8.4375 1 7 C0.25 3.375 0.25 3.375 0 0 Z " fill="#D9D5C2" transform="translate(279,184)"/>
<path d="M0 0 C0.66 0 1.32 0 2 0 C3.32 2.64 4.64 5.28 6 8 C5.01 9.485 5.01 9.485 4 11 C1.52214277 7.33708062 0.51035831 4.3890815 0 0 Z " fill="#AD9A6B" transform="translate(162,108)"/>
<path d="M0 0 C0.66 0.33 1.32 0.66 2 1 C1.34 2.98 0.68 4.96 0 7 C-1.98 7.33 -3.96 7.66 -6 8 C-4.02 5.36 -2.04 2.72 0 0 Z " fill="#E2CB81" transform="translate(236,89)"/>
<path d="M0 0 C-0.11362262 1.4800841 -0.24122908 2.95910074 -0.375 4.4375 C-0.44460937 5.26121094 -0.51421875 6.08492188 -0.5859375 6.93359375 C-0.72257813 7.61550781 -0.85921875 8.29742187 -1 9 C-1.99 9.495 -1.99 9.495 -3 10 C-4.125 5.25 -4.125 5.25 -3 3 C-3.99 2.67 -4.98 2.34 -6 2 C-2.25 0 -2.25 0 0 0 Z " fill="#E8DAA3" transform="translate(237,76)"/>
<path d="M0 0 C-1.98 2.97 -1.98 2.97 -4 6 C-4.33 5.34 -4.66 4.68 -5 4 C-4.67 3.34 -4.34 2.68 -4 2 C-5.65 2.33 -7.3 2.66 -9 3 C-8.67 2.01 -8.34 1.02 -8 0 C-4.71303767 -0.79953138 -3.28976808 -1.09658936 0 0 Z " fill="#D0C08F" transform="translate(213,83)"/>
<path d="M0 0 C0.66 0.99 1.32 1.98 2 3 C3.65 2.67 5.3 2.34 7 2 C4.22920113 5.80984844 0.37131855 6.06840752 -4 7 C-2.68 4.69 -1.36 2.38 0 0 Z " fill="#E2CB88" transform="translate(248,72)"/>
<path d="M0 0 C0.33 0.99 0.66 1.98 1 3 C-0.31306433 5.0133653 -1.64837492 7.01231606 -3 9 C-3.78215588 11.7282504 -3.78215588 11.7282504 -4 14 C-4.33 14 -4.66 14 -5 14 C-5.36666667 6.66666667 -5.36666667 6.66666667 -3.625 3.5 C-2 2 -2 2 0 2 C0 1.34 0 0.68 0 0 Z " fill="#D3BF8D" transform="translate(177,62)"/>
<path d="M0 0 C0 2.64 0 5.28 0 8 C-0.66 8 -1.32 8 -2 8 C-2 6.35 -2 4.7 -2 3 C-3.65 3.33 -5.3 3.66 -7 4 C-7 3.34 -7 2.68 -7 2 C-2.25 0 -2.25 0 0 0 Z " fill="#DBDABE" transform="translate(300,184)"/>
<path d="M0 0 C0.99 0.33 1.98 0.66 3 1 C1.95125002 3.62187494 1.35068687 4.79371361 -1.125 6.25 C-1.74375 6.4975 -2.3625 6.745 -3 7 C-3.1875 4.625 -3.1875 4.625 -3 2 C-2.01 1.34 -1.02 0.68 0 0 Z " fill="#CBB06E" transform="translate(221,96)"/>
<path d="M0 0 C4.95 1.98 4.95 1.98 10 4 C10 4.99 10 5.98 10 7 C9.113125 6.525625 8.22625 6.05125 7.3125 5.5625 C4.42957244 4.20262851 2.12389377 3.45939614 -1 3 C-0.67 2.01 -0.34 1.02 0 0 Z " fill="#E1DDC8" transform="translate(224,44)"/>
<path d="M0 0 C0.66 0 1.32 0 2 0 C1.67 4.62 1.34 9.24 1 14 C0.67 14 0.34 14 0 14 C-0.19456705 12.04235617 -0.38044247 10.08384679 -0.5625 8.125 C-0.66691406 7.03445312 -0.77132812 5.94390625 -0.87890625 4.8203125 C-1 2 -1 2 0 0 Z " fill="#BAA063" transform="translate(217,158)"/>
<path d="M0 0 C3.3 0 6.6 0 10 0 C9.67 0.99 9.34 1.98 9 3 C6.36 3 3.72 3 1 3 C0.67 2.01 0.34 1.02 0 0 Z " fill="#BDB089" transform="translate(241,147)"/>
<path d="M0 0 C1.32 0.33 2.64 0.66 4 1 C4 2.32 4 3.64 4 5 C1.03 4.505 1.03 4.505 -2 4 C-2 3.34 -2 2.68 -2 2 C-1.34 2 -0.68 2 0 2 C0 1.34 0 0.68 0 0 Z " fill="#D8B86F" transform="translate(202,73)"/>
<path d="M0 0 C0.66 1.32 1.32 2.64 2 4 C2.99 4 3.98 4 5 4 C5.33 3.01 5.66 2.02 6 1 C6.5625 2.9375 6.5625 2.9375 7 5 C6 6 6 6 3.5 6.125 C1 6 1 6 0 5 C-0.04063832 3.33382885 -0.042721 1.66611905 0 0 Z " fill="#E9E6CB" transform="translate(154,186)"/>
<path d="M0 0 C1.67542976 0.28604898 3.34385343 0.61781233 5 1 C5 1.66 5 2.32 5 3 C3.35 3.66 1.7 4.32 0 5 C-0.5625 3.0625 -0.5625 3.0625 -1 1 C-0.67 0.67 -0.34 0.34 0 0 Z " fill="#D9D7C1" transform="translate(302,184)"/>
<path d="M0 0 C1.65 0.33 3.3 0.66 5 1 C5 1.99 5 2.98 5 4 C2.36 4 -0.28 4 -3 4 C-3.33 3.34 -3.66 2.68 -4 2 C-2.68 2.33 -1.36 2.66 0 3 C0 2.01 0 1.02 0 0 Z " fill="#C0A661" transform="translate(218,172)"/>
<path d="M0 0 C0.66 0 1.32 0 2 0 C-0.10714286 5.99725275 -0.10714286 5.99725275 -3 8 C-5.1875 7.6875 -5.1875 7.6875 -7 7 C-6.01 6.67 -5.02 6.34 -4 6 C-2.65729179 4.00628175 -1.32346506 2.0065438 0 0 Z " fill="#E0CD97" transform="translate(230,79)"/>
<path d="M0 0 C2.0625 0.4375 2.0625 0.4375 4 1 C4 1.66 4 2.32 4 3 C4.66 3.33 5.32 3.66 6 4 C4.02 4.66 2.04 5.32 0 6 C-0.38218767 4.34385343 -0.71395102 2.67542976 -1 1 C-0.67 0.67 -0.34 0.34 0 0 Z " fill="#DEC076" transform="translate(249,70)"/>
<path d="M0 0 C0.94875 0.04125 1.8975 0.0825 2.875 0.125 C3.205 1.115 3.535 2.105 3.875 3.125 C0.905 2.795 -2.065 2.465 -5.125 2.125 C-3.125 0.125 -3.125 0.125 0 0 Z " fill="#DACFA0" transform="translate(220.125,42.875)"/>
<path d="M0 0 C0.66 0 1.32 0 2 0 C2 3.3 2 6.6 2 10 C1.01 9.67 0.02 9.34 -1 9 C-0.67 6.03 -0.34 3.06 0 0 Z " fill="#B1A17A" transform="translate(141,147)"/>
<path d="M0 0 C0.99 0.33 1.98 0.66 3 1 C2.67 3.97 2.34 6.94 2 10 C1.67 9.01 1.34 8.02 1 7 C0.34 6.67 -0.32 6.34 -1 6 C-0.34 5.01 0.32 4.02 1 3 C0.34 2.34 -0.32 1.68 -1 1 C-0.67 0.67 -0.34 0.34 0 0 Z " fill="#BBB087" transform="translate(265,42)"/>
<path d="M0 0 C2.2477975 2.05233685 3.0022242 3.00667261 4 6 C2.68 6 1.36 6 0 6 C0 5.01 0 4.02 0 3 C-1.65 3 -3.3 3 -5 3 C-5 2.67 -5 2.34 -5 2 C-3.35 2 -1.7 2 0 2 C0 1.34 0 0.68 0 0 Z " fill="#F0EFDD" transform="translate(167,186)"/>
<path d="M0 0 C0.99 0 1.98 0 3 0 C3 2.64 3 5.28 3 8 C2.34 8 1.68 8 1 8 C0.67 5.36 0.34 2.72 0 0 Z " fill="#D6D7C1" transform="translate(211,184)"/>
<path d="M0 0 C1.32 0 2.64 0 4 0 C4 1.98 4 3.96 4 6 C3.34 6 2.68 6 2 6 C1.67 5.01 1.34 4.02 1 3 C0.34 3 -0.32 3 -1 3 C-0.67 2.01 -0.34 1.02 0 0 Z " fill="#DBD7BF" transform="translate(134,184)"/>
<path d="M0 0 C0.66 0.33 1.32 0.66 2 1 C1.85892253 2.45880109 1.71197585 3.91703551 1.5625 5.375 C1.48128906 6.18710938 1.40007812 6.99921875 1.31640625 7.8359375 C1 10 1 10 0 12 C-1 11 -1 11 -1.1328125 8.75 C-1.13023438 7.8425 -1.12765625 6.935 -1.125 6 C-1.12757812 5.0925 -1.13015625 4.185 -1.1328125 3.25 C-1 1 -1 1 0 0 Z " fill="#B3A37A" transform="translate(124,165)"/>
<path d="M0 0 C2 2 2 2 2 6 C0.35 6 -1.3 6 -3 6 C-3 5.34 -3 4.68 -3 4 C-2.34 4 -1.68 4 -1 4 C-0.67 2.68 -0.34 1.36 0 0 Z " fill="#BA9A56" transform="translate(238,124)"/>
<path d="M0 0 C0.99 0.33 1.98 0.66 3 1 C3 2.65 3 4.3 3 6 C0 5 0 5 -2 4 C-1.34 2.68 -0.68 1.36 0 0 Z " fill="#CFB273" transform="translate(222,103)"/>
<path d="M0 0 C0.99 0 1.98 0 3 0 C1.55746343 3.36591866 -0.33264727 5.51047079 -3 8 C-2.67 6.02 -2.34 4.04 -2 2 C-1.34 2 -0.68 2 0 2 C0 1.34 0 0.68 0 0 Z " fill="#D7C38D" transform="translate(232,96)"/>
<path d="M0 0 C-0.33 1.65 -0.66 3.3 -1 5 C-3.475 4.01 -3.475 4.01 -6 3 C-3.375 0 -3.375 0 0 0 Z " fill="#E6C985" transform="translate(218,66)"/>
<path d="M0 0 C0.99 0 1.98 0 3 0 C3 2.31 3 4.62 3 7 C2.67 5.68 2.34 4.36 2 3 C-0.475 4.485 -0.475 4.485 -3 6 C-2 4 -1 2 0 0 Z " fill="#C4AA6F" transform="translate(263,49)"/>
<path d="M0 0 C0.66 0 1.32 0 2 0 C2 0.99 2 1.98 2 3 C3.32 3 4.64 3 6 3 C6 3.66 6 4.32 6 5 C3.69 5 1.38 5 -1 5 C-0.67 3.35 -0.34 1.7 0 0 Z " fill="#E3E1CA" transform="translate(144,187)"/>
<path d="M0 0 C0.66 0.33 1.32 0.66 2 1 C2 3.64 2 6.28 2 9 C0.35 9 -1.3 9 -3 9 C-2.505 8.62875 -2.01 8.2575 -1.5 7.875 C0.59755514 5.25305607 0.21743835 3.26157528 0 0 Z " fill="#B29763" transform="translate(136,167)"/>
<path d="M0 0 C0.66 0 1.32 0 2 0 C2.33 1.65 2.66 3.3 3 5 C0.69 5 -1.62 5 -4 5 C-2.68 4.34 -1.36 3.68 0 3 C0 2.01 0 1.02 0 0 Z " fill="#C2A665" transform="translate(302,159)"/>
<path d="M0 0 C1.9375 0.6875 1.9375 0.6875 4 2 C4.75 4.625 4.75 4.625 5 7 C3.68 6.67 2.36 6.34 1 6 C1 4.68 1 3.36 1 2 C0.67 1.34 0.34 0.68 0 0 Z " fill="#B6954A" transform="translate(178,156)"/>
<path d="M0 0 C0.33 0.99 0.66 1.98 1 3 C-0.65 4.65 -2.3 6.3 -4 8 C-3.67 5.69 -3.34 3.38 -3 1 C-2.01 1.33 -1.02 1.66 0 2 C0 1.34 0 0.68 0 0 Z " fill="#D2C184" transform="translate(228,90)"/>
<path d="M0 0 C-0.66 1.65 -1.32 3.3 -2 5 C-3.32 4.67 -4.64 4.34 -6 4 C-5.67 3.01 -5.34 2.02 -5 1 C-2 0 -2 0 0 0 Z " fill="#CFAF66" transform="translate(175,63)"/>
<path d="M0 0 C0.598125 0.350625 1.19625 0.70125 1.8125 1.0625 C1.4825 2.0525 1.1525 3.0425 0.8125 4.0625 C-0.8375 3.7325 -2.4875 3.4025 -4.1875 3.0625 C-4.5175 2.0725 -4.8475 1.0825 -5.1875 0.0625 C-2.1875 -0.9375 -2.1875 -0.9375 0 0 Z " fill="#AE8D3F" transform="translate(201.1875,123.9375)"/>
<path d="M0 0 C-2.97 2.475 -2.97 2.475 -6 5 C-6.33 3.68 -6.66 2.36 -7 1 C-3.375 -1.125 -3.375 -1.125 0 0 Z " fill="#B8A469" transform="translate(220,104)"/>
<path d="M0 0 C1.125 1.75 1.125 1.75 2 4 C1.125 6.25 1.125 6.25 0 8 C-0.66 7.34 -1.32 6.68 -2 6 C-1.34 4.02 -0.68 2.04 0 0 Z " fill="#BA9A54" transform="translate(166,75)"/>
<path d="M0 0 C0.33 0 0.66 0 1 0 C1 3.3 1 6.6 1 10 C0.01 10.33 -0.98 10.66 -2 11 C-1.34 7.37 -0.68 3.74 0 0 Z " fill="#DFCDA7" transform="translate(241,67)"/>
<path d="M0 0 C0.33 0 0.66 0 1 0 C1 3.3 1 6.6 1 10 C1.66 10 2.32 10 3 10 C2.67 10.99 2.34 11.98 2 13 C1.34 12.67 0.68 12.34 0 12 C0 8.04 0 4.08 0 0 Z " fill="#E6D18A" transform="translate(243,60)"/>
<path d="" fill="#D5D5D5" transform="translate(0,0)"/>
<path d="" fill="#FFFFFF" transform="translate(0,0)"/>
<path d="" fill="#FFFFFF" transform="translate(0,0)"/>
<path d="" fill="#FFFFFF" transform="translate(0,0)"/>
</svg>
